<svg width="48" height="182" viewBox="0 0 48 182" fill="none" xmlns="http://www.w3.org/2000/svg">
<path d="M8.61425 24.1706L15.6932 3.69311C16.2504 2.08129 17.7682 1 19.4737 1H27.9799C29.7429 1 31.2981 2.15434 31.8086 3.8419L37.905 23.9966C38.2073 24.9962 38.8886 25.8379 39.8033 26.3419L43.7346 28.508C45.0113 29.2115 45.8043 30.5537 45.8043 32.0114V39.0614V45.2004V55.4319L46.3348 169.616V176.164L46.2561 176.771C45.9977 178.765 44.2997 180.257 42.2893 180.257H42.0904H5.92038C5.28406 180.257 4.65692 180.105 4.09104 179.814L3.45004 179.485C2.38567 178.937 1.62234 177.942 1.36958 176.772L1.3285 176.582C1.26852 176.304 1.23828 176.021 1.23828 175.737V168.388V55.0227V45.2004V31.9261C1.23828 30.5141 1.98274 29.2066 3.19706 28.4861L6.87498 26.3037C7.68881 25.8208 8.30506 25.065 8.61425 24.1706Z" fill="#D21D79"/>
<path d="M1.23828 45.2004V31.9261C1.23828 30.5141 1.98274 29.2066 3.19706 28.4861L6.87498 26.3037C7.68881 25.8208 8.30506 25.065 8.61425 24.1706L15.6932 3.69311C16.2504 2.08129 17.7682 1 19.4737 1H27.9799C29.7429 1 31.2981 2.15434 31.8086 3.8419L37.905 23.9966C38.2073 24.9962 38.8886 25.8379 39.8033 26.3419L43.7346 28.508C45.0113 29.2115 45.8043 30.5537 45.8043 32.0114V39.0614V45.2004M1.23828 45.2004H45.8043M1.23828 45.2004V55.0227M45.8043 45.2004V55.4319M45.8043 55.4319L46.3348 169.616V176.164L46.2561 176.771C45.9977 178.765 44.2997 180.257 42.2893 180.257H42.0904H5.92038C5.28406 180.257 4.65692 180.105 4.09104 179.814L3.45004 179.485C2.38567 178.937 1.62234 177.942 1.36958 176.772L1.3285 176.582C1.26852 176.304 1.23828 176.021 1.23828 175.737V168.388V55.0227M45.8043 55.4319L1.23828 55.0227" stroke="black" stroke-width="2"/>
<rect x="1.23828" y="45.2031" width="44.566" height="9.8223" fill="black"/>
<rect x="1.23828" y="156.523" width="45.6271" height="9.8223" fill="black"/>
<rect x="1.23828" y="146.703" width="44.566" height="5.72968" fill="black"/>
<path d="M1.23828 140.152H45.8043V143.426H1.23828V140.152Z" fill="black"/>
<rect x="1.23828" y="59.9336" width="44.566" height="5.72968" fill="black"/>
<rect x="1.23828" y="69.7578" width="44.566" height="3.2741" fill="black"/>
<ellipse cx="23.729" cy="104.138" rx="8.6958" ry="24.5558" fill="black"/>
</svg>
