<svg width="1194" height="834" viewBox="0 0 1194 834" fill="none" xmlns="http://www.w3.org/2000/svg">
<g filter="url(#filter0_d_674_74)">
<path d="M-100.594 -325.797C88.3166 -215.339 -152.945 77.4026 18.9599 117.118C190.865 156.833 229.038 300.025 378.382 280.302C527.725 260.579 450.328 456.719 610.462 472.409C770.595 488.099 696.117 636.089 922.966 616.732C1149.82 597.374 1273.27 890.81 1221.5 1022.5" stroke="#F4D6AD" stroke-width="50"/>
</g>
<rect width="20" height="5" rx="2.5" transform="matrix(0.967795 0.251741 0.251741 -0.967795 813.133 614.582)" fill="white"/>
<rect width="20" height="5" rx="2.5" transform="matrix(0.967795 0.251741 0.251741 -0.967795 813.133 614.582)" fill="white"/>
<rect width="20" height="5" rx="2.5" transform="matrix(0.967795 0.251741 0.251741 -0.967795 813.133 614.582)" fill="white"/>
<rect width="20" height="5" rx="2.5" transform="matrix(0.967795 0.251741 0.251741 -0.967795 813.133 614.582)" fill="white"/>
<rect width="20" height="5" rx="2.5" transform="matrix(0.979966 0.199167 0.199167 -0.979966 838.182 620.441)" fill="white"/>
<rect width="20" height="5" rx="2.5" transform="matrix(0.979966 0.199167 0.199167 -0.979966 838.182 620.441)" fill="white"/>
<rect width="20" height="5" rx="2.5" transform="matrix(0.979966 0.199167 0.199167 -0.979966 838.182 620.441)" fill="white"/>
<rect width="20" height="5" rx="2.5" transform="matrix(0.979966 0.199167 0.199167 -0.979966 838.182 620.441)" fill="white"/>
<rect width="20" height="5" rx="2.5" transform="matrix(0.997324 0.0731069 0.0731069 -0.997324 863.354 625.539)" fill="white"/>
<rect width="20" height="5" rx="2.5" transform="matrix(0.997324 0.0731069 0.0731069 -0.997324 863.354 625.539)" fill="white"/>
<rect width="20" height="5" rx="2.5" transform="matrix(0.997324 0.0731069 0.0731069 -0.997324 863.354 625.539)" fill="white"/>
<rect width="20" height="5" rx="2.5" transform="matrix(0.997324 0.0731069 0.0731069 -0.997324 863.354 625.539)" fill="white"/>
<rect width="20" height="5" rx="2.5" transform="matrix(0.998533 -0.0541367 -0.0541367 -0.998533 888.971 627.398)" fill="white"/>
<rect width="20" height="5" rx="2.5" transform="matrix(0.998533 -0.0541367 -0.0541367 -0.998533 888.971 627.398)" fill="white"/>
<rect width="20" height="5" rx="2.5" transform="matrix(0.998533 -0.0541367 -0.0541367 -0.998533 888.971 627.398)" fill="white"/>
<rect width="20" height="5" rx="2.5" transform="matrix(0.998533 -0.0541367 -0.0541367 -0.998533 888.971 627.398)" fill="white"/>
<rect width="20" height="5" rx="2.5" transform="matrix(0.983574 -0.180504 -0.180504 -0.983574 914.617 625.992)" fill="white"/>
<rect width="20" height="5" rx="2.5" transform="matrix(0.983574 -0.180504 -0.180504 -0.983574 914.617 625.992)" fill="white"/>
<rect width="20" height="5" rx="2.5" transform="matrix(0.983574 -0.180504 -0.180504 -0.983574 914.617 625.992)" fill="white"/>
<rect width="20" height="5" rx="2.5" transform="matrix(0.983574 -0.180504 -0.180504 -0.983574 914.617 625.992)" fill="white"/>
<rect width="20" height="5" rx="2.5" transform="matrix(0.998957 0.0456637 0.0456637 -0.998957 939.203 622.715)" fill="white"/>
<rect width="20" height="5" rx="2.5" transform="matrix(0.998957 0.0456637 0.0456637 -0.998957 939.203 622.715)" fill="white"/>
<rect width="20" height="5" rx="2.5" transform="matrix(0.998957 0.0456637 0.0456637 -0.998957 939.203 622.715)" fill="white"/>
<rect width="20" height="5" rx="2.5" transform="matrix(0.998957 0.0456637 0.0456637 -0.998957 939.203 622.715)" fill="white"/>
<rect width="20" height="5" rx="2.5" transform="matrix(0.965448 0.260594 0.260594 -0.965448 964.018 622.277)" fill="white"/>
<rect width="20" height="5" rx="2.5" transform="matrix(0.965448 0.260594 0.260594 -0.965448 964.018 622.277)" fill="white"/>
<rect width="20" height="5" rx="2.5" transform="matrix(0.965448 0.260594 0.260594 -0.965448 964.018 622.277)" fill="white"/>
<rect width="20" height="5" rx="2.5" transform="matrix(0.965448 0.260594 0.260594 -0.965448 964.018 622.277)" fill="white"/>
<rect width="20" height="5" rx="2.5" transform="matrix(0.886257 0.463193 0.463193 -0.886257 988.336 627.215)" fill="white"/>
<rect width="20" height="5" rx="2.5" transform="matrix(0.886257 0.463193 0.463193 -0.886257 988.336 627.215)" fill="white"/>
<rect width="20" height="5" rx="2.5" transform="matrix(0.886257 0.463193 0.463193 -0.886257 988.336 627.215)" fill="white"/>
<rect width="20" height="5" rx="2.5" transform="matrix(0.886257 0.463193 0.463193 -0.886257 988.336 627.215)" fill="white"/>
<rect width="20" height="5" rx="2.5" transform="matrix(0.922251 0.386591 0.386591 -0.922251 1015.35 640.695)" fill="white"/>
<rect width="20" height="5" rx="2.5" transform="matrix(0.922251 0.386591 0.386591 -0.922251 1015.35 640.695)" fill="white"/>
<rect width="20" height="5" rx="2.5" transform="matrix(0.922251 0.386591 0.386591 -0.922251 1015.35 640.695)" fill="white"/>
<rect width="20" height="5" rx="2.5" transform="matrix(0.922251 0.386591 0.386591 -0.922251 1015.35 640.695)" fill="white"/>
<rect width="20" height="5" rx="2.5" transform="matrix(0.820289 0.571949 0.571949 -0.820289 1107.75 689.426)" fill="white"/>
<rect width="20" height="5" rx="2.5" transform="matrix(0.820289 0.571949 0.571949 -0.820289 1107.75 689.426)" fill="white"/>
<rect width="20" height="5" rx="2.5" transform="matrix(0.820289 0.571949 0.571949 -0.820289 1107.75 689.426)" fill="white"/>
<rect width="20" height="5" rx="2.5" transform="matrix(0.820289 0.571949 0.571949 -0.820289 1107.75 689.426)" fill="white"/>
<rect width="20" height="5" rx="2.5" transform="matrix(0.820289 0.571949 0.571949 -0.820289 1085.64 675.605)" fill="white"/>
<rect width="20" height="5" rx="2.5" transform="matrix(0.820289 0.571949 0.571949 -0.820289 1085.64 675.605)" fill="white"/>
<rect width="20" height="5" rx="2.5" transform="matrix(0.820289 0.571949 0.571949 -0.820289 1085.64 675.605)" fill="white"/>
<rect width="20" height="5" rx="2.5" transform="matrix(0.820289 0.571949 0.571949 -0.820289 1085.64 675.605)" fill="white"/>
<rect width="20" height="5" rx="2.5" transform="matrix(0.820289 0.571949 0.571949 -0.820289 1063.53 661.785)" fill="white"/>
<rect width="20" height="5" rx="2.5" transform="matrix(0.820289 0.571949 0.571949 -0.820289 1063.53 661.785)" fill="white"/>
<rect width="20" height="5" rx="2.5" transform="matrix(0.820289 0.571949 0.571949 -0.820289 1063.53 661.785)" fill="white"/>
<rect width="20" height="5" rx="2.5" transform="matrix(0.820289 0.571949 0.571949 -0.820289 1063.53 661.785)" fill="white"/>
<rect width="20" height="5" rx="2.5" transform="matrix(0.820289 0.571949 0.571949 -0.820289 1041.41 647.965)" fill="white"/>
<rect width="20" height="5" rx="2.5" transform="matrix(0.820289 0.571949 0.571949 -0.820289 1041.41 647.965)" fill="white"/>
<rect width="20" height="5" rx="2.5" transform="matrix(0.820289 0.571949 0.571949 -0.820289 1041.41 647.965)" fill="white"/>
<rect width="20" height="5" rx="2.5" transform="matrix(0.820289 0.571949 0.571949 -0.820289 1041.41 647.965)" fill="white"/>
<rect width="20" height="5" rx="2.5" transform="matrix(0.820289 0.571949 0.571949 -0.820289 1130.9 707.234)" fill="white"/>
<rect width="20" height="5" rx="2.5" transform="matrix(0.820289 0.571949 0.571949 -0.820289 1130.9 707.234)" fill="white"/>
<rect width="20" height="5" rx="2.5" transform="matrix(0.820289 0.571949 0.571949 -0.820289 1130.9 707.234)" fill="white"/>
<rect width="20" height="5" rx="2.5" transform="matrix(0.820289 0.571949 0.571949 -0.820289 1130.9 707.234)" fill="white"/>
<rect width="20" height="5" rx="2.5" transform="matrix(0.895534 0.444994 0.444994 -0.895534 787.016 600.43)" fill="white"/>
<rect width="20" height="5" rx="2.5" transform="matrix(0.895534 0.444994 0.444994 -0.895534 787.016 600.43)" fill="white"/>
<rect width="20" height="5" rx="2.5" transform="matrix(0.895534 0.444994 0.444994 -0.895534 787.016 600.43)" fill="white"/>
<rect width="20" height="5" rx="2.5" transform="matrix(0.895534 0.444994 0.444994 -0.895534 787.016 600.43)" fill="white"/>
<rect width="20" height="5" rx="2.5" transform="matrix(0.824197 0.566303 0.566303 -0.824197 759.873 583.289)" fill="white"/>
<rect width="20" height="5" rx="2.5" transform="matrix(0.824197 0.566303 0.566303 -0.824197 759.873 583.289)" fill="white"/>
<rect width="20" height="5" rx="2.5" transform="matrix(0.824197 0.566303 0.566303 -0.824197 759.873 583.289)" fill="white"/>
<rect width="20" height="5" rx="2.5" transform="matrix(0.824197 0.566303 0.566303 -0.824197 759.873 583.289)" fill="white"/>
<rect width="20" height="5" rx="2.5" transform="matrix(0.704739 0.709466 0.709466 -0.704739 741.713 563.832)" fill="white"/>
<rect width="20" height="5" rx="2.5" transform="matrix(0.704739 0.709466 0.709466 -0.704739 741.713 563.832)" fill="white"/>
<rect width="20" height="5" rx="2.5" transform="matrix(0.704739 0.709466 0.709466 -0.704739 741.713 563.832)" fill="white"/>
<rect width="20" height="5" rx="2.5" transform="matrix(0.704739 0.709466 0.709466 -0.704739 741.713 563.832)" fill="white"/>
<rect width="20" height="5" rx="2.5" transform="matrix(0.942879 0.333135 0.333135 -0.942879 577.887 463.375)" fill="white"/>
<rect width="20" height="5" rx="2.5" transform="matrix(0.942879 0.333135 0.333135 -0.942879 577.887 463.375)" fill="white"/>
<rect width="20" height="5" rx="2.5" transform="matrix(0.942879 0.333135 0.333135 -0.942879 577.887 463.375)" fill="white"/>
<rect width="20" height="5" rx="2.5" transform="matrix(0.942879 0.333135 0.333135 -0.942879 577.887 463.375)" fill="white"/>
<rect width="20" height="5" rx="2.5" transform="matrix(0.942879 0.333135 0.333135 -0.942879 603.951 471.16)" fill="white"/>
<rect width="20" height="5" rx="2.5" transform="matrix(0.942879 0.333135 0.333135 -0.942879 603.951 471.16)" fill="white"/>
<rect width="20" height="5" rx="2.5" transform="matrix(0.942879 0.333135 0.333135 -0.942879 603.951 471.16)" fill="white"/>
<rect width="20" height="5" rx="2.5" transform="matrix(0.942879 0.333135 0.333135 -0.942879 603.951 471.16)" fill="white"/>
<rect width="20" height="5" rx="2.5" transform="matrix(0.942879 0.333135 0.333135 -0.942879 629.023 479.957)" fill="white"/>
<rect width="20" height="5" rx="2.5" transform="matrix(0.942879 0.333135 0.333135 -0.942879 629.023 479.957)" fill="white"/>
<rect width="20" height="5" rx="2.5" transform="matrix(0.942879 0.333135 0.333135 -0.942879 629.023 479.957)" fill="white"/>
<rect width="20" height="5" rx="2.5" transform="matrix(0.942879 0.333135 0.333135 -0.942879 629.023 479.957)" fill="white"/>
<rect width="20" height="5" rx="2.5" transform="matrix(0.881508 0.472168 0.472168 -0.881508 655.094 488.43)" fill="white"/>
<rect width="20" height="5" rx="2.5" transform="matrix(0.881508 0.472168 0.472168 -0.881508 655.094 488.43)" fill="white"/>
<rect width="20" height="5" rx="2.5" transform="matrix(0.881508 0.472168 0.472168 -0.881508 655.094 488.43)" fill="white"/>
<rect width="20" height="5" rx="2.5" transform="matrix(0.881508 0.472168 0.472168 -0.881508 655.094 488.43)" fill="white"/>
<rect width="20" height="5" rx="2.5" transform="matrix(0.892524 0.451 0.451 -0.892524 553.787 451.316)" fill="white"/>
<rect width="20" height="5" rx="2.5" transform="matrix(0.892524 0.451 0.451 -0.892524 553.787 451.316)" fill="white"/>
<rect width="20" height="5" rx="2.5" transform="matrix(0.892524 0.451 0.451 -0.892524 553.787 451.316)" fill="white"/>
<rect width="20" height="5" rx="2.5" transform="matrix(0.892524 0.451 0.451 -0.892524 553.787 451.316)" fill="white"/>
<rect width="20" height="5" rx="2.5" transform="matrix(0.754878 0.655865 0.655865 -0.754878 530.625 431.809)" fill="white"/>
<rect width="20" height="5" rx="2.5" transform="matrix(0.754878 0.655865 0.655865 -0.754878 530.625 431.809)" fill="white"/>
<rect width="20" height="5" rx="2.5" transform="matrix(0.754878 0.655865 0.655865 -0.754878 530.625 431.809)" fill="white"/>
<rect width="20" height="5" rx="2.5" transform="matrix(0.754878 0.655865 0.655865 -0.754878 530.625 431.809)" fill="white"/>
<rect width="20" height="5" rx="2.5" transform="matrix(0.956633 0.291294 0.291294 -0.956633 419.443 287.734)" fill="white"/>
<rect width="20" height="5" rx="2.5" transform="matrix(0.956633 0.291294 0.291294 -0.956633 419.443 287.734)" fill="white"/>
<rect width="20" height="5" rx="2.5" transform="matrix(0.956633 0.291294 0.291294 -0.956633 419.443 287.734)" fill="white"/>
<rect width="20" height="5" rx="2.5" transform="matrix(0.956633 0.291294 0.291294 -0.956633 419.443 287.734)" fill="white"/>
<rect width="20" height="5" rx="2.5" transform="matrix(0.869962 0.493119 0.493119 -0.869962 442.895 296.312)" fill="white"/>
<rect width="20" height="5" rx="2.5" transform="matrix(0.869962 0.493119 0.493119 -0.869962 442.895 296.312)" fill="white"/>
<rect width="20" height="5" rx="2.5" transform="matrix(0.869962 0.493119 0.493119 -0.869962 442.895 296.312)" fill="white"/>
<rect width="20" height="5" rx="2.5" transform="matrix(0.869962 0.493119 0.493119 -0.869962 442.895 296.312)" fill="white"/>
<rect width="20" height="5" rx="2.5" transform="matrix(0.55609 0.831122 0.831122 -0.55609 462.67 315.359)" fill="white"/>
<rect width="20" height="5" rx="2.5" transform="matrix(0.55609 0.831122 0.831122 -0.55609 462.67 315.359)" fill="white"/>
<rect width="20" height="5" rx="2.5" transform="matrix(0.55609 0.831122 0.831122 -0.55609 462.67 315.359)" fill="white"/>
<rect width="20" height="5" rx="2.5" transform="matrix(0.55609 0.831122 0.831122 -0.55609 462.67 315.359)" fill="white"/>
<rect width="20" height="5" rx="2.5" transform="matrix(0.57691 0.816807 0.816807 -0.57691 477.867 339.34)" fill="white"/>
<rect width="20" height="5" rx="2.5" transform="matrix(0.57691 0.816807 0.816807 -0.57691 477.867 339.34)" fill="white"/>
<rect width="20" height="5" rx="2.5" transform="matrix(0.57691 0.816807 0.816807 -0.57691 477.867 339.34)" fill="white"/>
<rect width="20" height="5" rx="2.5" transform="matrix(0.57691 0.816807 0.816807 -0.57691 477.867 339.34)" fill="white"/>
<rect width="20" height="5" rx="2.5" transform="matrix(0.57691 0.816807 0.816807 -0.57691 490.055 362.242)" fill="white"/>
<rect width="20" height="5" rx="2.5" transform="matrix(0.57691 0.816807 0.816807 -0.57691 490.055 362.242)" fill="white"/>
<rect width="20" height="5" rx="2.5" transform="matrix(0.57691 0.816807 0.816807 -0.57691 490.055 362.242)" fill="white"/>
<rect width="20" height="5" rx="2.5" transform="matrix(0.57691 0.816807 0.816807 -0.57691 490.055 362.242)" fill="white"/>
<rect width="20" height="5" rx="2.5" transform="matrix(0.57691 0.816807 0.816807 -0.57691 502.242 385.145)" fill="white"/>
<rect width="20" height="5" rx="2.5" transform="matrix(0.57691 0.816807 0.816807 -0.57691 502.242 385.145)" fill="white"/>
<rect width="20" height="5" rx="2.5" transform="matrix(0.57691 0.816807 0.816807 -0.57691 502.242 385.145)" fill="white"/>
<rect width="20" height="5" rx="2.5" transform="matrix(0.57691 0.816807 0.816807 -0.57691 502.242 385.145)" fill="white"/>
<rect width="20" height="5" rx="2.5" transform="matrix(0.57691 0.816807 0.816807 -0.57691 514.432 408.043)" fill="white"/>
<rect width="20" height="5" rx="2.5" transform="matrix(0.57691 0.816807 0.816807 -0.57691 514.432 408.043)" fill="white"/>
<rect width="20" height="5" rx="2.5" transform="matrix(0.57691 0.816807 0.816807 -0.57691 514.432 408.043)" fill="white"/>
<rect width="20" height="5" rx="2.5" transform="matrix(0.57691 0.816807 0.816807 -0.57691 514.432 408.043)" fill="white"/>
<rect width="20" height="5" rx="2.5" transform="matrix(0.999887 -0.0150126 -0.0150126 -0.999887 391.463 286.332)" fill="white"/>
<rect width="20" height="5" rx="2.5" transform="matrix(0.999887 -0.0150126 -0.0150126 -0.999887 391.463 286.332)" fill="white"/>
<rect width="20" height="5" rx="2.5" transform="matrix(0.999887 -0.0150126 -0.0150126 -0.999887 391.463 286.332)" fill="white"/>
<rect width="20" height="5" rx="2.5" transform="matrix(0.999887 -0.0150126 -0.0150126 -0.999887 391.463 286.332)" fill="white"/>
<rect width="20" height="5" rx="2.5" transform="matrix(0.998751 0.049965 0.049965 -0.998751 360.422 285.441)" fill="white"/>
<rect width="20" height="5" rx="2.5" transform="matrix(0.998751 0.049965 0.049965 -0.998751 360.422 285.441)" fill="white"/>
<rect width="20" height="5" rx="2.5" transform="matrix(0.998751 0.049965 0.049965 -0.998751 360.422 285.441)" fill="white"/>
<rect width="20" height="5" rx="2.5" transform="matrix(0.998751 0.049965 0.049965 -0.998751 360.422 285.441)" fill="white"/>
<rect width="20" height="5" rx="2.5" transform="matrix(0.997473 0.0710474 0.0710474 -0.997473 329.398 282.688)" fill="white"/>
<rect width="20" height="5" rx="2.5" transform="matrix(0.997473 0.0710474 0.0710474 -0.997473 329.398 282.688)" fill="white"/>
<rect width="20" height="5" rx="2.5" transform="matrix(0.997473 0.0710474 0.0710474 -0.997473 329.398 282.688)" fill="white"/>
<rect width="20" height="5" rx="2.5" transform="matrix(0.997473 0.0710474 0.0710474 -0.997473 329.398 282.688)" fill="white"/>
<rect width="20" height="5" rx="2.5" transform="matrix(0.967103 0.254386 0.254386 -0.967103 293.205 276.074)" fill="white"/>
<rect width="20" height="5" rx="2.5" transform="matrix(0.967103 0.254386 0.254386 -0.967103 293.205 276.074)" fill="white"/>
<rect width="20" height="5" rx="2.5" transform="matrix(0.967103 0.254386 0.254386 -0.967103 293.205 276.074)" fill="white"/>
<rect width="20" height="5" rx="2.5" transform="matrix(0.967103 0.254386 0.254386 -0.967103 293.205 276.074)" fill="white"/>
<rect width="20" height="5" rx="2.5" transform="matrix(0.845021 0.534733 0.534733 -0.845021 166.652 192.234)" fill="white"/>
<rect width="20" height="5" rx="2.5" transform="matrix(0.845021 0.534733 0.534733 -0.845021 166.652 192.234)" fill="white"/>
<rect width="20" height="5" rx="2.5" transform="matrix(0.845021 0.534733 0.534733 -0.845021 166.652 192.234)" fill="white"/>
<rect width="20" height="5" rx="2.5" transform="matrix(0.845021 0.534733 0.534733 -0.845021 166.652 192.234)" fill="white"/>
<rect width="20" height="5" rx="2.5" transform="matrix(0.845021 0.534733 0.534733 -0.845021 119.393 160.621)" fill="white"/>
<rect width="20" height="5" rx="2.5" transform="matrix(0.845021 0.534733 0.534733 -0.845021 119.393 160.621)" fill="white"/>
<rect width="20" height="5" rx="2.5" transform="matrix(0.845021 0.534733 0.534733 -0.845021 119.393 160.621)" fill="white"/>
<rect width="20" height="5" rx="2.5" transform="matrix(0.845021 0.534733 0.534733 -0.845021 119.393 160.621)" fill="white"/>
<rect width="20" height="5" rx="2.5" transform="matrix(0.845021 0.534733 0.534733 -0.845021 143.531 177.422)" fill="white"/>
<rect width="20" height="5" rx="2.5" transform="matrix(0.845021 0.534733 0.534733 -0.845021 143.531 177.422)" fill="white"/>
<rect width="20" height="5" rx="2.5" transform="matrix(0.845021 0.534733 0.534733 -0.845021 143.531 177.422)" fill="white"/>
<rect width="20" height="5" rx="2.5" transform="matrix(0.845021 0.534733 0.534733 -0.845021 143.531 177.422)" fill="white"/>
<rect width="20" height="5" rx="2.5" transform="matrix(0.894765 0.446538 0.446538 -0.894765 -0.289062 112.602)" fill="white"/>
<rect width="20" height="5" rx="2.5" transform="matrix(0.894765 0.446538 0.446538 -0.894765 -0.289062 112.602)" fill="white"/>
<rect width="20" height="5" rx="2.5" transform="matrix(0.894765 0.446538 0.446538 -0.894765 -0.289062 112.602)" fill="white"/>
<rect width="20" height="5" rx="2.5" transform="matrix(0.894765 0.446538 0.446538 -0.894765 -0.289062 112.602)" fill="white"/>
<rect width="20" height="5" rx="2.5" transform="matrix(0.935334 0.353765 0.353765 -0.935334 23.8184 124.043)" fill="white"/>
<rect width="20" height="5" rx="2.5" transform="matrix(0.935334 0.353765 0.353765 -0.935334 23.8184 124.043)" fill="white"/>
<rect width="20" height="5" rx="2.5" transform="matrix(0.935334 0.353765 0.353765 -0.935334 23.8184 124.043)" fill="white"/>
<rect width="20" height="5" rx="2.5" transform="matrix(0.935334 0.353765 0.353765 -0.935334 23.8184 124.043)" fill="white"/>
<rect width="20" height="5" rx="2.5" transform="matrix(0.917171 0.398494 0.398494 -0.917171 49.0996 131.453)" fill="white"/>
<rect width="20" height="5" rx="2.5" transform="matrix(0.917171 0.398494 0.398494 -0.917171 49.0996 131.453)" fill="white"/>
<rect width="20" height="5" rx="2.5" transform="matrix(0.917171 0.398494 0.398494 -0.917171 49.0996 131.453)" fill="white"/>
<rect width="20" height="5" rx="2.5" transform="matrix(0.917171 0.398494 0.398494 -0.917171 49.0996 131.453)" fill="white"/>
<rect width="20" height="5" rx="2.5" transform="matrix(0.917171 0.398494 0.398494 -0.917171 73.2168 139.363)" fill="white"/>
<rect width="20" height="5" rx="2.5" transform="matrix(0.917171 0.398494 0.398494 -0.917171 73.2168 139.363)" fill="white"/>
<rect width="20" height="5" rx="2.5" transform="matrix(0.917171 0.398494 0.398494 -0.917171 73.2168 139.363)" fill="white"/>
<rect width="20" height="5" rx="2.5" transform="matrix(0.917171 0.398494 0.398494 -0.917171 73.2168 139.363)" fill="white"/>
<rect width="20" height="5" rx="2.5" transform="matrix(0.704739 0.709466 0.709466 -0.704739 723.559 544.98)" fill="white"/>
<rect width="20" height="5" rx="2.5" transform="matrix(0.704739 0.709466 0.709466 -0.704739 723.559 544.98)" fill="white"/>
<rect width="20" height="5" rx="2.5" transform="matrix(0.704739 0.709466 0.709466 -0.704739 723.559 544.98)" fill="white"/>
<rect width="20" height="5" rx="2.5" transform="matrix(0.704739 0.709466 0.709466 -0.704739 723.559 544.98)" fill="white"/>
<rect width="20" height="5" rx="2.5" transform="matrix(0.704739 0.709466 0.709466 -0.704739 705.404 526.129)" fill="white"/>
<rect width="20" height="5" rx="2.5" transform="matrix(0.704739 0.709466 0.709466 -0.704739 705.404 526.129)" fill="white"/>
<rect width="20" height="5" rx="2.5" transform="matrix(0.704739 0.709466 0.709466 -0.704739 705.404 526.129)" fill="white"/>
<rect width="20" height="5" rx="2.5" transform="matrix(0.704739 0.709466 0.709466 -0.704739 705.404 526.129)" fill="white"/>
<rect width="20" height="5" rx="2.5" transform="matrix(0.704739 0.709466 0.709466 -0.704739 682.209 502.32)" fill="white"/>
<rect width="20" height="5" rx="2.5" transform="matrix(0.704739 0.709466 0.709466 -0.704739 682.209 502.32)" fill="white"/>
<rect width="20" height="5" rx="2.5" transform="matrix(0.704739 0.709466 0.709466 -0.704739 682.209 502.32)" fill="white"/>
<rect width="20" height="5" rx="2.5" transform="matrix(0.704739 0.709466 0.709466 -0.704739 682.209 502.32)" fill="white"/>
<rect width="20" height="5" rx="2.5" transform="matrix(0.845021 0.534733 0.534733 -0.845021 166.652 192.234)" fill="white"/>
<rect width="20" height="5" rx="2.5" transform="matrix(0.845021 0.534733 0.534733 -0.845021 166.652 192.234)" fill="white"/>
<rect width="20" height="5" rx="2.5" transform="matrix(0.845021 0.534733 0.534733 -0.845021 166.652 192.234)" fill="white"/>
<rect width="20" height="5" rx="2.5" transform="matrix(0.845021 0.534733 0.534733 -0.845021 166.652 192.234)" fill="white"/>
<rect width="20" height="5" rx="2.5" transform="matrix(0.845021 0.534733 0.534733 -0.845021 191.799 210.031)" fill="white"/>
<rect width="20" height="5" rx="2.5" transform="matrix(0.845021 0.534733 0.534733 -0.845021 191.799 210.031)" fill="white"/>
<rect width="20" height="5" rx="2.5" transform="matrix(0.845021 0.534733 0.534733 -0.845021 191.799 210.031)" fill="white"/>
<rect width="20" height="5" rx="2.5" transform="matrix(0.845021 0.534733 0.534733 -0.845021 191.799 210.031)" fill="white"/>
<rect width="20" height="5" rx="2.5" transform="matrix(0.845021 0.534733 0.534733 -0.845021 216.945 227.824)" fill="white"/>
<rect width="20" height="5" rx="2.5" transform="matrix(0.845021 0.534733 0.534733 -0.845021 216.945 227.824)" fill="white"/>
<rect width="20" height="5" rx="2.5" transform="matrix(0.845021 0.534733 0.534733 -0.845021 216.945 227.824)" fill="white"/>
<rect width="20" height="5" rx="2.5" transform="matrix(0.845021 0.534733 0.534733 -0.845021 216.945 227.824)" fill="white"/>
<rect width="20" height="5" rx="2.5" transform="matrix(0.845021 0.534733 0.534733 -0.845021 242.092 245.621)" fill="white"/>
<rect width="20" height="5" rx="2.5" transform="matrix(0.845021 0.534733 0.534733 -0.845021 242.092 245.621)" fill="white"/>
<rect width="20" height="5" rx="2.5" transform="matrix(0.845021 0.534733 0.534733 -0.845021 242.092 245.621)" fill="white"/>
<rect width="20" height="5" rx="2.5" transform="matrix(0.845021 0.534733 0.534733 -0.845021 242.092 245.621)" fill="white"/>
<rect width="20" height="5" rx="2.5" transform="matrix(0.845021 0.534733 0.534733 -0.845021 267.238 263.414)" fill="white"/>
<rect width="20" height="5" rx="2.5" transform="matrix(0.845021 0.534733 0.534733 -0.845021 267.238 263.414)" fill="white"/>
<rect width="20" height="5" rx="2.5" transform="matrix(0.845021 0.534733 0.534733 -0.845021 267.238 263.414)" fill="white"/>
<rect width="20" height="5" rx="2.5" transform="matrix(0.845021 0.534733 0.534733 -0.845021 267.238 263.414)" fill="white"/>
<rect width="20" height="5" rx="2.5" transform="matrix(0.845021 0.534733 0.534733 -0.845021 119.393 160.621)" fill="white"/>
<rect width="20" height="5" rx="2.5" transform="matrix(0.845021 0.534733 0.534733 -0.845021 119.393 160.621)" fill="white"/>
<rect width="20" height="5" rx="2.5" transform="matrix(0.845021 0.534733 0.534733 -0.845021 119.393 160.621)" fill="white"/>
<rect width="20" height="5" rx="2.5" transform="matrix(0.845021 0.534733 0.534733 -0.845021 119.393 160.621)" fill="white"/>
<rect width="20" height="5" rx="2.5" transform="matrix(0.845021 0.534733 0.534733 -0.845021 97.2871 147.801)" fill="white"/>
<rect width="20" height="5" rx="2.5" transform="matrix(0.845021 0.534733 0.534733 -0.845021 97.2871 147.801)" fill="white"/>
<rect width="20" height="5" rx="2.5" transform="matrix(0.845021 0.534733 0.534733 -0.845021 97.2871 147.801)" fill="white"/>
<rect width="20" height="5" rx="2.5" transform="matrix(0.845021 0.534733 0.534733 -0.845021 97.2871 147.801)" fill="white"/>
<rect width="20" height="5" rx="2.5" transform="matrix(0.845021 0.534733 0.534733 -0.845021 143.531 177.422)" fill="white"/>
<rect width="20" height="5" rx="2.5" transform="matrix(0.845021 0.534733 0.534733 -0.845021 143.531 177.422)" fill="white"/>
<rect width="20" height="5" rx="2.5" transform="matrix(0.845021 0.534733 0.534733 -0.845021 143.531 177.422)" fill="white"/>
<rect width="20" height="5" rx="2.5" transform="matrix(0.845021 0.534733 0.534733 -0.845021 143.531 177.422)" fill="white"/>
<defs>
<filter id="filter0_d_674_74" x="-117.213" y="-347.379" width="1379.43" height="1387.02" filterUnits="userSpaceOnUse" color-interpolation-filters="sRGB">
<feFlood flood-opacity="0" result="BackgroundImageFix"/>
<feColorMatrix in="SourceAlpha" type="matrix" values="0 0 0 0 0 0 0 0 0 0 0 0 0 0 0 0 0 0 127 0" result="hardAlpha"/>
<feOffset dy="4"/>
<feGaussianBlur stdDeviation="2"/>
<feComposite in2="hardAlpha" operator="out"/>
<feColorMatrix type="matrix" values="0 0 0 0 1 0 0 0 0 1 0 0 0 0 1 0 0 0 0.25 0"/>
<feBlend mode="normal" in2="BackgroundImageFix" result="effect1_dropShadow_674_74"/>
<feBlend mode="normal" in="SourceGraphic" in2="effect1_dropShadow_674_74" result="shape"/>
</filter>
</defs>
</svg>
