<svg width="1194" height="834" viewBox="0 0 1194 834" fill="none" xmlns="http://www.w3.org/2000/svg">
<path d="M-1044.03 -859.767C-1044.03 -859.767 -276.816 -575.136 -116.552 -410.91C43.7112 -246.683 -174.649 -4.24135 -3.07443 36.8793C168.5 78 205.5 221.5 355 203C504.5 184.5 425.5 380 585.5 397C745.5 414 669.812 561.375 896.812 543.875C1123.81 526.375 1676.6 1240.41 1623.75 1371.67" stroke="#F4D6AD" stroke-width="50"/>
<rect width="20" height="5" rx="2.5" transform="matrix(0.965702 0.259653 0.259653 -0.965702 787 540.828)" fill="white"/>
<rect width="20" height="5" rx="2.5" transform="matrix(0.965702 0.259653 0.259653 -0.965702 787 540.828)" fill="white"/>
<rect width="20" height="5" rx="2.5" transform="matrix(0.965702 0.259653 0.259653 -0.965702 787 540.828)" fill="white"/>
<rect width="20" height="5" rx="2.5" transform="matrix(0.965702 0.259653 0.259653 -0.965702 787 540.828)" fill="white"/>
<rect width="20" height="5" rx="2.5" transform="matrix(0.815581 0.578644 0.578644 -0.815581 1081 618.078)" fill="white"/>
<rect width="20" height="5" rx="2.5" transform="matrix(0.815581 0.578644 0.578644 -0.815581 1081 618.078)" fill="white"/>
<rect width="20" height="5" rx="2.5" transform="matrix(0.815581 0.578644 0.578644 -0.815581 1081 618.078)" fill="white"/>
<rect width="20" height="5" rx="2.5" transform="matrix(0.815581 0.578644 0.578644 -0.815581 1081 618.078)" fill="white"/>
<rect width="20" height="5" rx="2.5" transform="matrix(0.815581 0.578644 0.578644 -0.815581 1104 636.078)" fill="white"/>
<rect width="20" height="5" rx="2.5" transform="matrix(0.815581 0.578644 0.578644 -0.815581 1104 636.078)" fill="white"/>
<rect width="20" height="5" rx="2.5" transform="matrix(0.815581 0.578644 0.578644 -0.815581 1104 636.078)" fill="white"/>
<rect width="20" height="5" rx="2.5" transform="matrix(0.815581 0.578644 0.578644 -0.815581 1104 636.078)" fill="white"/>
<rect width="20" height="5" rx="2.5" transform="matrix(0.891862 0.452308 0.452308 -0.891862 761 526.461)" fill="white"/>
<rect width="20" height="5" rx="2.5" transform="matrix(0.891862 0.452308 0.452308 -0.891862 761 526.461)" fill="white"/>
<rect width="20" height="5" rx="2.5" transform="matrix(0.891862 0.452308 0.452308 -0.891862 761 526.461)" fill="white"/>
<rect width="20" height="5" rx="2.5" transform="matrix(0.891862 0.452308 0.452308 -0.891862 761 526.461)" fill="white"/>
<rect width="20" height="5" rx="2.5" transform="matrix(0.819535 0.573029 0.573029 -0.819535 734 509.098)" fill="white"/>
<rect width="20" height="5" rx="2.5" transform="matrix(0.819535 0.573029 0.573029 -0.819535 734 509.098)" fill="white"/>
<rect width="20" height="5" rx="2.5" transform="matrix(0.819535 0.573029 0.573029 -0.819535 734 509.098)" fill="white"/>
<rect width="20" height="5" rx="2.5" transform="matrix(0.819535 0.573029 0.573029 -0.819535 734 509.098)" fill="white"/>
<rect width="20" height="5" rx="2.5" transform="matrix(0.698909 0.71521 0.71521 -0.698909 716 489.496)" fill="white"/>
<rect width="20" height="5" rx="2.5" transform="matrix(0.698909 0.71521 0.71521 -0.698909 716 489.496)" fill="white"/>
<rect width="20" height="5" rx="2.5" transform="matrix(0.698909 0.71521 0.71521 -0.698909 716 489.496)" fill="white"/>
<rect width="20" height="5" rx="2.5" transform="matrix(0.698909 0.71521 0.71521 -0.698909 716 489.496)" fill="white"/>
<rect width="20" height="5" rx="2.5" transform="matrix(0.940121 0.340841 0.340841 -0.940121 560.945 396.059)" fill="white"/>
<rect width="20" height="5" rx="2.5" transform="matrix(0.940121 0.340841 0.340841 -0.940121 560.945 396.059)" fill="white"/>
<rect width="20" height="5" rx="2.5" transform="matrix(0.940121 0.340841 0.340841 -0.940121 560.945 396.059)" fill="white"/>
<rect width="20" height="5" rx="2.5" transform="matrix(0.940121 0.340841 0.340841 -0.940121 560.945 396.059)" fill="white"/>
<rect width="20" height="5" rx="2.5" transform="matrix(0.888803 0.458289 0.458289 -0.888803 534.043 382.297)" fill="white"/>
<rect width="20" height="5" rx="2.5" transform="matrix(0.888803 0.458289 0.458289 -0.888803 534.043 382.297)" fill="white"/>
<rect width="20" height="5" rx="2.5" transform="matrix(0.888803 0.458289 0.458289 -0.888803 534.043 382.297)" fill="white"/>
<rect width="20" height="5" rx="2.5" transform="matrix(0.888803 0.458289 0.458289 -0.888803 534.043 382.297)" fill="white"/>
<rect width="20" height="5" rx="2.5" transform="matrix(0.749485 0.662021 0.662021 -0.749485 510.357 363.242)" fill="white"/>
<rect width="20" height="5" rx="2.5" transform="matrix(0.749485 0.662021 0.662021 -0.749485 510.357 363.242)" fill="white"/>
<rect width="20" height="5" rx="2.5" transform="matrix(0.749485 0.662021 0.662021 -0.749485 510.357 363.242)" fill="white"/>
<rect width="20" height="5" rx="2.5" transform="matrix(0.749485 0.662021 0.662021 -0.749485 510.357 363.242)" fill="white"/>
<rect width="20" height="5" rx="2.5" transform="matrix(0.954217 0.299114 0.299114 -0.954217 396 210.77)" fill="white"/>
<rect width="20" height="5" rx="2.5" transform="matrix(0.954217 0.299114 0.299114 -0.954217 396 210.77)" fill="white"/>
<rect width="20" height="5" rx="2.5" transform="matrix(0.954217 0.299114 0.299114 -0.954217 396 210.77)" fill="white"/>
<rect width="20" height="5" rx="2.5" transform="matrix(0.954217 0.299114 0.299114 -0.954217 396 210.77)" fill="white"/>
<rect width="20" height="5" rx="2.5" transform="matrix(0.999977 -0.00682871 -0.00682871 -0.999977 368.033 209.137)" fill="white"/>
<rect width="20" height="5" rx="2.5" transform="matrix(0.999977 -0.00682871 -0.00682871 -0.999977 368.033 209.137)" fill="white"/>
<rect width="20" height="5" rx="2.5" transform="matrix(0.999977 -0.00682871 -0.00682871 -0.999977 368.033 209.137)" fill="white"/>
<rect width="20" height="5" rx="2.5" transform="matrix(0.999977 -0.00682871 -0.00682871 -0.999977 368.033 209.137)" fill="white"/>
<rect width="20" height="5" rx="2.5" transform="matrix(0.998309 0.0581374 0.0581374 -0.998309 337 207.992)" fill="white"/>
<rect width="20" height="5" rx="2.5" transform="matrix(0.998309 0.0581374 0.0581374 -0.998309 337 207.992)" fill="white"/>
<rect width="20" height="5" rx="2.5" transform="matrix(0.998309 0.0581374 0.0581374 -0.998309 337 207.992)" fill="white"/>
<rect width="20" height="5" rx="2.5" transform="matrix(0.998309 0.0581374 0.0581374 -0.998309 337 207.992)" fill="white"/>
<rect width="20" height="5" rx="2.5" transform="matrix(0.996858 0.0792087 0.0792087 -0.996858 306 204.984)" fill="white"/>
<rect width="20" height="5" rx="2.5" transform="matrix(0.996858 0.0792087 0.0792087 -0.996858 306 204.984)" fill="white"/>
<rect width="20" height="5" rx="2.5" transform="matrix(0.996858 0.0792087 0.0792087 -0.996858 306 204.984)" fill="white"/>
<rect width="20" height="5" rx="2.5" transform="matrix(0.996858 0.0792087 0.0792087 -0.996858 306 204.984)" fill="white"/>
<rect width="20" height="5" rx="2.5" transform="matrix(0.840616 0.541631 0.541631 -0.840616 144 113.203)" fill="white"/>
<rect width="20" height="5" rx="2.5" transform="matrix(0.840616 0.541631 0.541631 -0.840616 144 113.203)" fill="white"/>
<rect width="20" height="5" rx="2.5" transform="matrix(0.840616 0.541631 0.541631 -0.840616 144 113.203)" fill="white"/>
<rect width="20" height="5" rx="2.5" transform="matrix(0.840616 0.541631 0.541631 -0.840616 144 113.203)" fill="white"/>
<rect width="20" height="5" rx="2.5" transform="matrix(0.840616 0.541631 0.541631 -0.840616 97 81.2031)" fill="white"/>
<rect width="20" height="5" rx="2.5" transform="matrix(0.840616 0.541631 0.541631 -0.840616 97 81.2031)" fill="white"/>
<rect width="20" height="5" rx="2.5" transform="matrix(0.840616 0.541631 0.541631 -0.840616 97 81.2031)" fill="white"/>
<rect width="20" height="5" rx="2.5" transform="matrix(0.840616 0.541631 0.541631 -0.840616 97 81.2031)" fill="white"/>
<rect width="20" height="5" rx="2.5" transform="matrix(0.840616 0.541631 0.541631 -0.840616 121 98.2031)" fill="white"/>
<rect width="20" height="5" rx="2.5" transform="matrix(0.840616 0.541631 0.541631 -0.840616 121 98.2031)" fill="white"/>
<rect width="20" height="5" rx="2.5" transform="matrix(0.840616 0.541631 0.541631 -0.840616 121 98.2031)" fill="white"/>
<rect width="20" height="5" rx="2.5" transform="matrix(0.840616 0.541631 0.541631 -0.840616 121 98.2031)" fill="white"/>
<rect width="20" height="5" rx="2.5" transform="matrix(0.698909 0.71521 0.71521 -0.698909 698 470.496)" fill="white"/>
<rect width="20" height="5" rx="2.5" transform="matrix(0.698909 0.71521 0.71521 -0.698909 698 470.496)" fill="white"/>
<rect width="20" height="5" rx="2.5" transform="matrix(0.698909 0.71521 0.71521 -0.698909 698 470.496)" fill="white"/>
<rect width="20" height="5" rx="2.5" transform="matrix(0.698909 0.71521 0.71521 -0.698909 698 470.496)" fill="white"/>
<rect width="20" height="5" rx="2.5" transform="matrix(0.840616 0.541631 0.541631 -0.840616 144 113.203)" fill="white"/>
<rect width="20" height="5" rx="2.5" transform="matrix(0.840616 0.541631 0.541631 -0.840616 144 113.203)" fill="white"/>
<rect width="20" height="5" rx="2.5" transform="matrix(0.840616 0.541631 0.541631 -0.840616 144 113.203)" fill="white"/>
<rect width="20" height="5" rx="2.5" transform="matrix(0.840616 0.541631 0.541631 -0.840616 144 113.203)" fill="white"/>
<rect width="20" height="5" rx="2.5" transform="matrix(0.840616 0.541631 0.541631 -0.840616 97 81.2031)" fill="white"/>
<rect width="20" height="5" rx="2.5" transform="matrix(0.840616 0.541631 0.541631 -0.840616 97 81.2031)" fill="white"/>
<rect width="20" height="5" rx="2.5" transform="matrix(0.840616 0.541631 0.541631 -0.840616 97 81.2031)" fill="white"/>
<rect width="20" height="5" rx="2.5" transform="matrix(0.840616 0.541631 0.541631 -0.840616 97 81.2031)" fill="white"/>
<rect width="20" height="5" rx="2.5" transform="matrix(0.840616 0.541631 0.541631 -0.840616 121 98.2031)" fill="white"/>
<rect width="20" height="5" rx="2.5" transform="matrix(0.840616 0.541631 0.541631 -0.840616 121 98.2031)" fill="white"/>
<rect width="20" height="5" rx="2.5" transform="matrix(0.840616 0.541631 0.541631 -0.840616 121 98.2031)" fill="white"/>
<rect width="20" height="5" rx="2.5" transform="matrix(0.840616 0.541631 0.541631 -0.840616 121 98.2031)" fill="white"/>
</svg>
