<svg width="48" height="182" viewBox="0 0 48 182" fill="none" xmlns="http://www.w3.org/2000/svg">
<path d="M9.05254 24.7996L16.0964 4.42358C16.6536 2.81175 18.1714 1.73047 19.8769 1.73047H28.3239C30.087 1.73047 31.6421 2.88481 32.1526 4.57236L38.2183 24.6256C38.5207 25.6252 39.202 26.4669 40.1166 26.9709L44.0173 29.1201C45.294 29.8236 46.0869 31.1658 46.0869 32.6235V39.6346V45.7482V55.9375L46.6153 169.65V176.171L46.5388 176.761C46.2803 178.755 44.5823 180.247 42.572 180.247H42.3884H6.37183C5.73551 180.247 5.10837 180.095 4.54249 179.804L3.91464 179.481C2.85028 178.934 2.08695 177.939 1.83419 176.769L1.79529 176.589C1.73532 176.311 1.70508 176.028 1.70508 175.744V168.427V55.5299V45.7482V32.5381C1.70508 31.1261 2.44954 29.8187 3.66386 29.0982L7.31328 26.9327C8.1271 26.4498 8.74336 25.694 9.05254 24.7996Z" fill="#FDADBB"/>
<path d="M1.70508 45.7482V32.5381C1.70508 31.1261 2.44954 29.8187 3.66386 29.0982L7.31328 26.9327C8.1271 26.4498 8.74336 25.694 9.05254 24.7996L16.0964 4.42358C16.6536 2.81175 18.1714 1.73047 19.8769 1.73047H28.3239C30.087 1.73047 31.6421 2.88481 32.1526 4.57236L38.2183 24.6256C38.5207 25.6252 39.202 26.4669 40.1166 26.9709L44.0173 29.1201C45.294 29.8236 46.0869 31.1658 46.0869 32.6235V39.6346V45.7482M1.70508 45.7482H46.0869M1.70508 45.7482V55.5299M46.0869 45.7482V55.9375M46.0869 55.9375L46.6153 169.65V176.171L46.5388 176.761C46.2803 178.755 44.5823 180.247 42.572 180.247H42.3884H6.37183C5.73551 180.247 5.10837 180.095 4.54249 179.804L3.91464 179.481C2.85028 178.934 2.08695 177.939 1.83419 176.769L1.79529 176.589C1.73532 176.311 1.70508 176.028 1.70508 175.744V168.427V55.5299M46.0869 55.9375L1.70508 55.5299" stroke="black" stroke-width="2"/>
<rect x="1.70508" y="45.7461" width="44.3818" height="9.78172" fill="black"/>
<rect x="1.70508" y="156.609" width="45.4385" height="9.78172" fill="black"/>
<rect x="1.70508" y="146.828" width="44.3818" height="5.706" fill="black"/>
<path d="M1.70508 140.305H46.0869V143.565H1.70508V140.305Z" fill="black"/>
<rect x="1.70508" y="60.4219" width="44.3818" height="5.706" fill="black"/>
<rect x="1.70508" y="70.207" width="44.3818" height="3.26057" fill="black"/>
<ellipse cx="24.1013" cy="104.439" rx="8.65987" ry="24.4543" fill="black"/>
</svg>
