<svg width="236" height="565" viewBox="0 0 236 565" fill="none" xmlns="http://www.w3.org/2000/svg">
<path d="M61.8151 83.9807L67.1012 71.5295C78.6514 44.3233 103.358 24.9503 132.534 20.2221C184.861 11.7422 232.335 52.1421 232.335 105.152L232.335 113.145C232.335 139.633 221.021 164.86 201.24 182.476L129.14 246.687L87.6977 207.577C54.0728 175.844 43.7475 126.538 61.8151 83.9807Z" fill="#EFB61A"/>
<path d="M129.14 246.687C129.14 284.371 71.7446 317.113 139.66 397.315C205.224 474.74 14.914 556.753 67.6856 651.832C121.43 748.663 16.6677 773 1 858.223M129.14 246.687L87.6977 207.577C54.0728 175.844 43.7475 126.538 61.8151 83.9807L67.1012 71.5295C78.6514 44.3233 103.358 24.9503 132.534 20.2221V20.2221C184.861 11.7423 232.335 52.1421 232.335 105.152L232.335 113.145C232.335 139.633 221.021 164.86 201.24 182.476L129.14 246.687Z" stroke="black"/>
<mask id="path-3-outside-1_548_7" maskUnits="userSpaceOnUse" x="112.256" y="94.4453" width="47" height="52" fill="black">
<rect fill="white" x="112.256" y="94.4453" width="47" height="52"/>
<path d="M153.009 96.8533L157.233 98.1973L146.481 144.949L142.353 145.237L113.937 98.4853L117.969 96.5653L143.697 138.997L153.009 96.8533Z"/>
</mask>
<path d="M153.009 96.8533L157.233 98.1973L146.481 144.949L142.353 145.237L113.937 98.4853L117.969 96.5653L143.697 138.997L153.009 96.8533Z" fill="#F2F2F7"/>
<path d="M153.009 96.8533L153.313 95.9004L152.269 95.5684L152.033 96.6376L153.009 96.8533ZM157.233 98.1973L158.208 98.4214L158.415 97.5237L157.537 97.2444L157.233 98.1973ZM146.481 144.949L146.551 145.947L147.29 145.895L147.456 145.173L146.481 144.949ZM142.353 145.237L141.499 145.757L141.815 146.277L142.423 146.235L142.353 145.237ZM113.937 98.4853L113.508 97.5824L112.508 98.0585L113.083 99.0047L113.937 98.4853ZM117.969 96.5653L118.825 96.0468L118.356 95.2737L117.54 95.6624L117.969 96.5653ZM143.697 138.997L142.842 139.516L144.136 141.649L144.674 139.213L143.697 138.997ZM152.706 97.8062L156.93 99.1502L157.537 97.2444L153.313 95.9004L152.706 97.8062ZM156.259 97.9732L145.507 144.725L147.456 145.173L158.208 98.4214L156.259 97.9732ZM146.412 143.952L142.284 144.24L142.423 146.235L146.551 145.947L146.412 143.952ZM143.208 144.718L114.792 97.9659L113.083 99.0047L141.499 145.757L143.208 144.718ZM114.367 99.3882L118.399 97.4682L117.54 95.6624L113.508 97.5824L114.367 99.3882ZM117.114 97.0838L142.842 139.516L144.553 138.479L118.825 96.0468L117.114 97.0838ZM144.674 139.213L153.986 97.0691L152.033 96.6376L142.721 138.782L144.674 139.213Z" fill="white" mask="url(#path-3-outside-1_548_7)"/>
</svg>
