<svg width="49" height="182" viewBox="0 0 49 182" fill="none" xmlns="http://www.w3.org/2000/svg">
<path d="M9.333 24.1706L16.4119 3.69311C16.9691 2.08129 18.487 1 20.1924 1H28.6986C30.4617 1 32.0169 2.15434 32.5273 3.8419L38.6237 23.9966C38.9261 24.9962 39.6074 25.8379 40.5221 26.3419L44.4534 28.508C45.7301 29.2115 46.523 30.5537 46.523 32.0114V39.0614V45.2004V55.4319L47.0536 169.616V176.164L46.9749 176.771C46.7164 178.765 45.0184 180.257 43.0081 180.257H42.8092H6.63913C6.00281 180.257 5.37567 180.105 4.80979 179.814L4.16879 179.485C3.10442 178.937 2.34109 177.942 2.08833 176.772L2.04725 176.582C1.98727 176.304 1.95703 176.021 1.95703 175.737V168.388V55.0227V45.2004V31.9261C1.95703 30.5141 2.70149 29.2066 3.91581 28.4861L7.59373 26.3037C8.40756 25.8208 9.02381 25.065 9.333 24.1706Z" fill="#7059DA"/>
<path d="M1.95703 45.2004V31.9261C1.95703 30.5141 2.70149 29.2066 3.91581 28.4861L7.59373 26.3037C8.40756 25.8208 9.02381 25.065 9.333 24.1706L16.4119 3.69311C16.9691 2.08129 18.487 1 20.1924 1H28.6986C30.4617 1 32.0169 2.15434 32.5273 3.8419L38.6237 23.9966C38.9261 24.9962 39.6074 25.8379 40.5221 26.3419L44.4534 28.508C45.7301 29.2115 46.523 30.5537 46.523 32.0114V39.0614V45.2004M1.95703 45.2004H46.523M1.95703 45.2004V55.0227M46.523 45.2004V55.4319M46.523 55.4319L47.0536 169.616V176.164L46.9749 176.771C46.7164 178.765 45.0184 180.257 43.0081 180.257H42.8092H6.63913C6.00281 180.257 5.37567 180.105 4.80979 179.814L4.16879 179.485C3.10442 178.937 2.34109 177.942 2.08833 176.772L2.04725 176.582C1.98727 176.304 1.95703 176.021 1.95703 175.737V168.388V55.0227M46.523 55.4319L1.95703 55.0227" stroke="black" stroke-width="2"/>
<rect x="1.95703" y="45.2031" width="44.566" height="9.8223" fill="black"/>
<rect x="1.95703" y="156.52" width="45.6271" height="9.8223" fill="black"/>
<rect x="1.95703" y="146.699" width="44.566" height="5.72968" fill="black"/>
<path d="M1.95703 140.148H46.523V143.423H1.95703V140.148Z" fill="black"/>
<rect x="1.95703" y="59.9336" width="44.566" height="5.72968" fill="black"/>
<rect x="1.95703" y="69.7578" width="44.566" height="3.2741" fill="black"/>
<ellipse cx="24.4497" cy="104.134" rx="8.6958" ry="24.5558" fill="black"/>
</svg>
