<svg width="47" height="182" viewBox="0 0 47 182" fill="none" xmlns="http://www.w3.org/2000/svg">
<path d="M8.44317 24.7996L15.487 4.42358C16.0442 2.81175 17.5621 1.73047 19.2675 1.73047H27.7145C29.4776 1.73047 31.0328 2.88481 31.5432 4.57236L37.6089 24.6256C37.9113 25.6252 38.5926 26.4669 39.5073 26.9709L43.4079 29.1201C44.6846 29.8236 45.4775 31.1658 45.4775 32.6235V39.6346V45.7482V55.9375L46.0059 169.65V176.171L45.9294 176.761C45.671 178.755 43.973 180.247 41.9626 180.247H41.7791H5.76245C5.12613 180.247 4.49899 180.095 3.93312 179.804L3.30527 179.481C2.2409 178.934 1.47757 177.939 1.22481 176.769L1.18592 176.589C1.12595 176.311 1.0957 176.028 1.0957 175.744V168.427V55.5299V45.7482V32.5381C1.0957 31.1261 1.84016 29.8187 3.05448 29.0982L6.7039 26.9327C7.51773 26.4498 8.13399 25.694 8.44317 24.7996Z" fill="#961BFF"/>
<path d="M1.0957 45.7482V32.5381C1.0957 31.1261 1.84016 29.8187 3.05448 29.0982L6.7039 26.9327C7.51773 26.4498 8.13399 25.694 8.44317 24.7996L15.487 4.42358C16.0442 2.81175 17.5621 1.73047 19.2675 1.73047H27.7145C29.4776 1.73047 31.0328 2.88481 31.5432 4.57236L37.6089 24.6256C37.9113 25.6252 38.5926 26.4669 39.5073 26.9709L43.4079 29.1201C44.6846 29.8236 45.4775 31.1658 45.4775 32.6235V39.6346V45.7482M1.0957 45.7482H45.4775M1.0957 45.7482V55.5299M45.4775 45.7482V55.9375M45.4775 55.9375L46.0059 169.65V176.171L45.9294 176.761C45.671 178.755 43.973 180.247 41.9626 180.247H41.7791H5.76245C5.12613 180.247 4.49899 180.095 3.93312 179.804L3.30527 179.481C2.2409 178.934 1.47757 177.939 1.22481 176.769L1.18592 176.589C1.12595 176.311 1.0957 176.028 1.0957 175.744V168.427V55.5299M45.4775 55.9375L1.0957 55.5299" stroke="black" stroke-width="2"/>
<rect x="1.0957" y="45.7461" width="44.3818" height="9.78172" fill="black"/>
<rect x="1.0957" y="156.609" width="45.4385" height="9.78172" fill="black"/>
<rect x="1.0957" y="146.828" width="44.3818" height="5.706" fill="black"/>
<path d="M1.0957 140.305H45.4775V143.565H1.0957V140.305Z" fill="black"/>
<rect x="1.0957" y="60.4219" width="44.3818" height="5.706" fill="black"/>
<rect x="1.0957" y="70.207" width="44.3818" height="3.26057" fill="black"/>
<ellipse cx="23.4958" cy="104.439" rx="8.65987" ry="24.4543" fill="black"/>
</svg>
