<svg width="48" height="182" viewBox="0 0 48 182" fill="none" xmlns="http://www.w3.org/2000/svg">
<path d="M8.78887 24.7996L15.8327 4.42358C16.3899 2.81175 17.9078 1.73047 19.6132 1.73047H28.0602C29.8233 1.73047 31.3785 2.88481 31.8889 4.57236L37.9546 24.6256C38.257 25.6252 38.9383 26.4669 39.853 26.9709L43.7536 29.1201C45.0303 29.8236 45.8232 31.1658 45.8232 32.6235V39.6346V45.7482V55.9375L46.3516 169.65V176.171L46.2751 176.761C46.0167 178.755 44.3187 180.247 42.3083 180.247H42.1248H6.10815C5.47184 180.247 4.8447 180.095 4.27882 179.804L3.65097 179.481C2.58661 178.934 1.82328 177.939 1.57052 176.769L1.53162 176.589C1.47165 176.311 1.44141 176.028 1.44141 175.744V168.427V55.5299V45.7482V32.5381C1.44141 31.1261 2.18586 29.8187 3.40018 29.0982L7.04961 26.9327C7.86343 26.4498 8.47969 25.694 8.78887 24.7996Z" fill="#D8FF9C"/>
<path d="M1.44141 45.7482V32.5381C1.44141 31.1261 2.18586 29.8187 3.40018 29.0982L7.04961 26.9327C7.86343 26.4498 8.47969 25.694 8.78887 24.7996L15.8327 4.42358C16.3899 2.81175 17.9078 1.73047 19.6132 1.73047H28.0602C29.8233 1.73047 31.3785 2.88481 31.8889 4.57236L37.9546 24.6256C38.257 25.6252 38.9383 26.4669 39.853 26.9709L43.7536 29.1201C45.0303 29.8236 45.8232 31.1658 45.8232 32.6235V39.6346V45.7482M1.44141 45.7482H45.8232M1.44141 45.7482V55.5299M45.8232 45.7482V55.9375M45.8232 55.9375L46.3516 169.65V176.171L46.2751 176.761C46.0167 178.755 44.3187 180.247 42.3083 180.247H42.1248H6.10815C5.47184 180.247 4.8447 180.095 4.27882 179.804L3.65097 179.481C2.58661 178.934 1.82328 177.939 1.57052 176.769L1.53162 176.589C1.47165 176.311 1.44141 176.028 1.44141 175.744V168.427V55.5299M45.8232 55.9375L1.44141 55.5299" stroke="black" stroke-width="2"/>
<rect x="1.44141" y="45.7461" width="44.3818" height="9.78172" fill="black"/>
<rect x="1.44141" y="156.609" width="45.4385" height="9.78172" fill="black"/>
<rect x="1.44141" y="146.828" width="44.3818" height="5.706" fill="black"/>
<path d="M1.44141 140.305H45.8232V143.565H1.44141V140.305Z" fill="black"/>
<rect x="1.44141" y="60.4219" width="44.3818" height="5.706" fill="black"/>
<rect x="1.44141" y="70.207" width="44.3818" height="3.26057" fill="black"/>
<ellipse cx="23.8396" cy="104.439" rx="8.65987" ry="24.4543" fill="black"/>
</svg>
