<svg width="48" height="182" viewBox="0 0 48 182" fill="none" xmlns="http://www.w3.org/2000/svg">
<path d="M9.1834 24.7996L16.2272 4.42358C16.7844 2.81175 18.3023 1.73047 20.0077 1.73047H28.4548C30.2178 1.73047 31.773 2.88481 32.2834 4.57236L38.3492 24.6256C38.6515 25.6252 39.3328 26.4669 40.2475 26.9709L44.1481 29.1201C45.4248 29.8236 46.2178 31.1658 46.2178 32.6235V39.6346V45.7482V55.9375L46.7461 169.65V176.171L46.6697 176.761C46.4112 178.755 44.7132 180.247 42.7028 180.247H42.5193H6.50269C5.86637 180.247 5.23923 180.095 4.67335 179.804L4.0455 179.481C2.98114 178.934 2.21781 177.939 1.96505 176.769L1.92615 176.589C1.86618 176.311 1.83594 176.028 1.83594 175.744V168.427V55.5299V45.7482V32.5381C1.83594 31.1261 2.58039 29.8187 3.79472 29.0982L7.44414 26.9327C8.25796 26.4498 8.87422 25.694 9.1834 24.7996Z" fill="#9E4000"/>
<path d="M1.83594 45.7482V32.5381C1.83594 31.1261 2.58039 29.8187 3.79472 29.0982L7.44414 26.9327C8.25796 26.4498 8.87422 25.694 9.1834 24.7996L16.2272 4.42358C16.7844 2.81175 18.3023 1.73047 20.0077 1.73047H28.4548C30.2178 1.73047 31.773 2.88481 32.2834 4.57236L38.3492 24.6256C38.6515 25.6252 39.3328 26.4669 40.2475 26.9709L44.1481 29.1201C45.4248 29.8236 46.2178 31.1658 46.2178 32.6235V39.6346V45.7482M1.83594 45.7482H46.2178M1.83594 45.7482V55.5299M46.2178 45.7482V55.9375M46.2178 55.9375L46.7461 169.65V176.171L46.6696 176.761C46.4112 178.755 44.7132 180.247 42.7028 180.247H42.5193H6.50269C5.86637 180.247 5.23923 180.095 4.67335 179.804L4.0455 179.481C2.98114 178.934 2.21781 177.939 1.96505 176.769L1.92615 176.589C1.86618 176.311 1.83594 176.028 1.83594 175.744V168.427V55.5299M46.2178 55.9375L1.83594 55.5299" stroke="black" stroke-width="2"/>
<rect x="1.83594" y="45.7461" width="44.3818" height="9.78172" fill="black"/>
<rect x="1.83594" y="156.609" width="45.4385" height="9.78172" fill="black"/>
<rect x="1.83594" y="146.828" width="44.3818" height="5.706" fill="black"/>
<path d="M1.83594 140.305H46.2178V143.565H1.83594V140.305Z" fill="black"/>
<rect x="1.83594" y="60.4219" width="44.3818" height="5.706" fill="black"/>
<rect x="1.83594" y="70.207" width="44.3818" height="3.26057" fill="black"/>
<ellipse cx="24.2302" cy="104.439" rx="8.65987" ry="24.4543" fill="black"/>
</svg>
