<svg width="48" height="182" viewBox="0 0 48 182" fill="none" xmlns="http://www.w3.org/2000/svg">
<path d="M9.31621 24.7996L16.3601 4.42358C16.9173 2.81175 18.4351 1.73047 20.1405 1.73047H28.5876C30.3506 1.73047 31.9058 2.88481 32.4163 4.57236L38.482 24.6256C38.7844 25.6252 39.4656 26.4669 40.3803 26.9709L44.2809 29.1201C45.5576 29.8236 46.3506 31.1658 46.3506 32.6235V39.6346V45.7482V55.9375L46.8789 169.65V176.171L46.8025 176.761C46.544 178.755 44.846 180.247 42.8357 180.247H42.6521H6.6355C5.99918 180.247 5.37204 180.095 4.80616 179.804L4.17831 179.481C3.11395 178.934 2.35062 177.939 2.09786 176.769L2.05897 176.589C1.99899 176.311 1.96875 176.028 1.96875 175.744V168.427V55.5299V45.7482V32.5381C1.96875 31.1261 2.71321 29.8187 3.92753 29.0982L7.57695 26.9327C8.39077 26.4498 9.00703 25.694 9.31621 24.7996Z" fill="#FC7446"/>
<path d="M1.96875 45.7482V32.5381C1.96875 31.1261 2.71321 29.8187 3.92753 29.0982L7.57695 26.9327C8.39077 26.4498 9.00703 25.694 9.31621 24.7996L16.3601 4.42358C16.9173 2.81175 18.4351 1.73047 20.1405 1.73047H28.5876C30.3506 1.73047 31.9058 2.88481 32.4163 4.57236L38.482 24.6256C38.7844 25.6252 39.4656 26.4669 40.3803 26.9709L44.2809 29.1201C45.5576 29.8236 46.3506 31.1658 46.3506 32.6235V39.6346V45.7482M1.96875 45.7482H46.3506M1.96875 45.7482V55.5299M46.3506 45.7482V55.9375M46.3506 55.9375L46.8789 169.65V176.171L46.8025 176.761C46.544 178.755 44.846 180.247 42.8357 180.247H42.6521H6.6355C5.99918 180.247 5.37204 180.095 4.80616 179.804L4.17831 179.481C3.11395 178.934 2.35062 177.939 2.09786 176.769L2.05897 176.589C1.99899 176.311 1.96875 176.028 1.96875 175.744V168.427V55.5299M46.3506 55.9375L1.96875 55.5299" stroke="black" stroke-width="2"/>
<rect x="1.96875" y="45.7461" width="44.3818" height="9.78172" fill="black"/>
<rect x="1.96875" y="156.609" width="45.4385" height="9.78172" fill="black"/>
<rect x="1.96875" y="146.828" width="44.3818" height="5.706" fill="black"/>
<path d="M1.96875 140.305H46.3506V143.565H1.96875V140.305Z" fill="black"/>
<rect x="1.96875" y="60.4219" width="44.3818" height="5.706" fill="black"/>
<rect x="1.96875" y="70.207" width="44.3818" height="3.26057" fill="black"/>
<ellipse cx="24.3669" cy="104.439" rx="8.65987" ry="24.4543" fill="black"/>
</svg>
