<svg width="1194" height="834" viewBox="0 0 1194 834" fill="none" xmlns="http://www.w3.org/2000/svg">
<path d="M-976.028 -738.767C-976.028 -738.767 -208.816 -454.136 -48.5522 -289.91C111.711 -125.683 -106.649 116.759 64.9256 157.879C236.5 199 273.5 342.5 423 324C572.5 305.5 493.5 501 653.5 518C813.5 535 737.812 682.375 964.812 664.875C1191.81 647.375 1744.6 1361.41 1691.75 1492.67" stroke="#F4D6AD" stroke-width="50"/>
<rect width="20" height="5" rx="2.5" transform="matrix(0.965702 0.259653 0.259653 -0.965702 855 661.828)" fill="white"/>
<rect width="20" height="5" rx="2.5" transform="matrix(0.965702 0.259653 0.259653 -0.965702 855 661.828)" fill="white"/>
<rect width="20" height="5" rx="2.5" transform="matrix(0.965702 0.259653 0.259653 -0.965702 855 661.828)" fill="white"/>
<rect width="20" height="5" rx="2.5" transform="matrix(0.965702 0.259653 0.259653 -0.965702 855 661.828)" fill="white"/>
<rect width="20" height="5" rx="2.5" transform="matrix(0.978303 0.20718 0.20718 -0.978303 880 667.891)" fill="white"/>
<rect width="20" height="5" rx="2.5" transform="matrix(0.978303 0.20718 0.20718 -0.978303 880 667.891)" fill="white"/>
<rect width="20" height="5" rx="2.5" transform="matrix(0.978303 0.20718 0.20718 -0.978303 880 667.891)" fill="white"/>
<rect width="20" height="5" rx="2.5" transform="matrix(0.978303 0.20718 0.20718 -0.978303 880 667.891)" fill="white"/>
<rect width="20" height="5" rx="2.5" transform="matrix(0.996692 0.0812669 0.0812669 -0.996692 905.131 673.195)" fill="white"/>
<rect width="20" height="5" rx="2.5" transform="matrix(0.996692 0.0812669 0.0812669 -0.996692 905.131 673.195)" fill="white"/>
<rect width="20" height="5" rx="2.5" transform="matrix(0.996692 0.0812669 0.0812669 -0.996692 905.131 673.195)" fill="white"/>
<rect width="20" height="5" rx="2.5" transform="matrix(0.996692 0.0812669 0.0812669 -0.996692 905.131 673.195)" fill="white"/>
<rect width="20" height="5" rx="2.5" transform="matrix(0.998943 -0.0459626 -0.0459626 -0.998943 930.732 675.266)" fill="white"/>
<rect width="20" height="5" rx="2.5" transform="matrix(0.998943 -0.0459626 -0.0459626 -0.998943 930.732 675.266)" fill="white"/>
<rect width="20" height="5" rx="2.5" transform="matrix(0.998943 -0.0459626 -0.0459626 -0.998943 930.732 675.266)" fill="white"/>
<rect width="20" height="5" rx="2.5" transform="matrix(0.998943 -0.0459626 -0.0459626 -0.998943 930.732 675.266)" fill="white"/>
<rect width="20" height="5" rx="2.5" transform="matrix(0.985019 -0.172448 -0.172448 -0.985019 956.389 674.066)" fill="white"/>
<rect width="20" height="5" rx="2.5" transform="matrix(0.985019 -0.172448 -0.172448 -0.985019 956.389 674.066)" fill="white"/>
<rect width="20" height="5" rx="2.5" transform="matrix(0.985019 -0.172448 -0.172448 -0.985019 956.389 674.066)" fill="white"/>
<rect width="20" height="5" rx="2.5" transform="matrix(0.985019 -0.172448 -0.172448 -0.985019 956.389 674.066)" fill="white"/>
<rect width="20" height="5" rx="2.5" transform="matrix(0.99855 0.0538379 0.0538379 -0.99855 981 670.992)" fill="white"/>
<rect width="20" height="5" rx="2.5" transform="matrix(0.99855 0.0538379 0.0538379 -0.99855 981 670.992)" fill="white"/>
<rect width="20" height="5" rx="2.5" transform="matrix(0.99855 0.0538379 0.0538379 -0.99855 981 670.992)" fill="white"/>
<rect width="20" height="5" rx="2.5" transform="matrix(0.99855 0.0538379 0.0538379 -0.99855 981 670.992)" fill="white"/>
<rect width="20" height="5" rx="2.5" transform="matrix(0.963283 0.268487 0.268487 -0.963283 1005.82 670.758)" fill="white"/>
<rect width="20" height="5" rx="2.5" transform="matrix(0.963283 0.268487 0.268487 -0.963283 1005.82 670.758)" fill="white"/>
<rect width="20" height="5" rx="2.5" transform="matrix(0.963283 0.268487 0.268487 -0.963283 1005.82 670.758)" fill="white"/>
<rect width="20" height="5" rx="2.5" transform="matrix(0.963283 0.268487 0.268487 -0.963283 1005.82 670.758)" fill="white"/>
<rect width="20" height="5" rx="2.5" transform="matrix(0.882437 0.470431 0.470431 -0.882437 1030.1 675.895)" fill="white"/>
<rect width="20" height="5" rx="2.5" transform="matrix(0.882437 0.470431 0.470431 -0.882437 1030.1 675.895)" fill="white"/>
<rect width="20" height="5" rx="2.5" transform="matrix(0.882437 0.470431 0.470431 -0.882437 1030.1 675.895)" fill="white"/>
<rect width="20" height="5" rx="2.5" transform="matrix(0.882437 0.470431 0.470431 -0.882437 1030.1 675.895)" fill="white"/>
<rect width="20" height="5" rx="2.5" transform="matrix(0.919056 0.394126 0.394126 -0.919056 1057 689.594)" fill="white"/>
<rect width="20" height="5" rx="2.5" transform="matrix(0.919056 0.394126 0.394126 -0.919056 1057 689.594)" fill="white"/>
<rect width="20" height="5" rx="2.5" transform="matrix(0.919056 0.394126 0.394126 -0.919056 1057 689.594)" fill="white"/>
<rect width="20" height="5" rx="2.5" transform="matrix(0.919056 0.394126 0.394126 -0.919056 1057 689.594)" fill="white"/>
<rect width="20" height="5" rx="2.5" transform="matrix(0.815581 0.578644 0.578644 -0.815581 1149 739.078)" fill="white"/>
<rect width="20" height="5" rx="2.5" transform="matrix(0.815581 0.578644 0.578644 -0.815581 1149 739.078)" fill="white"/>
<rect width="20" height="5" rx="2.5" transform="matrix(0.815581 0.578644 0.578644 -0.815581 1149 739.078)" fill="white"/>
<rect width="20" height="5" rx="2.5" transform="matrix(0.815581 0.578644 0.578644 -0.815581 1149 739.078)" fill="white"/>
<rect width="20" height="5" rx="2.5" transform="matrix(0.815581 0.578644 0.578644 -0.815581 1127 725.078)" fill="white"/>
<rect width="20" height="5" rx="2.5" transform="matrix(0.815581 0.578644 0.578644 -0.815581 1127 725.078)" fill="white"/>
<rect width="20" height="5" rx="2.5" transform="matrix(0.815581 0.578644 0.578644 -0.815581 1127 725.078)" fill="white"/>
<rect width="20" height="5" rx="2.5" transform="matrix(0.815581 0.578644 0.578644 -0.815581 1127 725.078)" fill="white"/>
<rect width="20" height="5" rx="2.5" transform="matrix(0.815581 0.578644 0.578644 -0.815581 1105 711.078)" fill="white"/>
<rect width="20" height="5" rx="2.5" transform="matrix(0.815581 0.578644 0.578644 -0.815581 1105 711.078)" fill="white"/>
<rect width="20" height="5" rx="2.5" transform="matrix(0.815581 0.578644 0.578644 -0.815581 1105 711.078)" fill="white"/>
<rect width="20" height="5" rx="2.5" transform="matrix(0.815581 0.578644 0.578644 -0.815581 1105 711.078)" fill="white"/>
<rect width="20" height="5" rx="2.5" transform="matrix(0.815581 0.578644 0.578644 -0.815581 1083 697.078)" fill="white"/>
<rect width="20" height="5" rx="2.5" transform="matrix(0.815581 0.578644 0.578644 -0.815581 1083 697.078)" fill="white"/>
<rect width="20" height="5" rx="2.5" transform="matrix(0.815581 0.578644 0.578644 -0.815581 1083 697.078)" fill="white"/>
<rect width="20" height="5" rx="2.5" transform="matrix(0.815581 0.578644 0.578644 -0.815581 1083 697.078)" fill="white"/>
<rect width="20" height="5" rx="2.5" transform="matrix(0.815581 0.578644 0.578644 -0.815581 1172 757.078)" fill="white"/>
<rect width="20" height="5" rx="2.5" transform="matrix(0.815581 0.578644 0.578644 -0.815581 1172 757.078)" fill="white"/>
<rect width="20" height="5" rx="2.5" transform="matrix(0.815581 0.578644 0.578644 -0.815581 1172 757.078)" fill="white"/>
<rect width="20" height="5" rx="2.5" transform="matrix(0.815581 0.578644 0.578644 -0.815581 1172 757.078)" fill="white"/>
<rect width="20" height="5" rx="2.5" transform="matrix(0.891862 0.452308 0.452308 -0.891862 829 647.461)" fill="white"/>
<rect width="20" height="5" rx="2.5" transform="matrix(0.891862 0.452308 0.452308 -0.891862 829 647.461)" fill="white"/>
<rect width="20" height="5" rx="2.5" transform="matrix(0.891862 0.452308 0.452308 -0.891862 829 647.461)" fill="white"/>
<rect width="20" height="5" rx="2.5" transform="matrix(0.891862 0.452308 0.452308 -0.891862 829 647.461)" fill="white"/>
<rect width="20" height="5" rx="2.5" transform="matrix(0.819535 0.573029 0.573029 -0.819535 802 630.098)" fill="white"/>
<rect width="20" height="5" rx="2.5" transform="matrix(0.819535 0.573029 0.573029 -0.819535 802 630.098)" fill="white"/>
<rect width="20" height="5" rx="2.5" transform="matrix(0.819535 0.573029 0.573029 -0.819535 802 630.098)" fill="white"/>
<rect width="20" height="5" rx="2.5" transform="matrix(0.819535 0.573029 0.573029 -0.819535 802 630.098)" fill="white"/>
<rect width="20" height="5" rx="2.5" transform="matrix(0.698909 0.71521 0.71521 -0.698909 784 610.496)" fill="white"/>
<rect width="20" height="5" rx="2.5" transform="matrix(0.698909 0.71521 0.71521 -0.698909 784 610.496)" fill="white"/>
<rect width="20" height="5" rx="2.5" transform="matrix(0.698909 0.71521 0.71521 -0.698909 784 610.496)" fill="white"/>
<rect width="20" height="5" rx="2.5" transform="matrix(0.698909 0.71521 0.71521 -0.698909 784 610.496)" fill="white"/>
<rect width="20" height="5" rx="2.5" transform="matrix(0.940121 0.340841 0.340841 -0.940121 621 508.699)" fill="white"/>
<rect width="20" height="5" rx="2.5" transform="matrix(0.940121 0.340841 0.340841 -0.940121 621 508.699)" fill="white"/>
<rect width="20" height="5" rx="2.5" transform="matrix(0.940121 0.340841 0.340841 -0.940121 621 508.699)" fill="white"/>
<rect width="20" height="5" rx="2.5" transform="matrix(0.940121 0.340841 0.340841 -0.940121 621 508.699)" fill="white"/>
<rect width="20" height="5" rx="2.5" transform="matrix(0.940121 0.340841 0.340841 -0.940121 647 516.699)" fill="white"/>
<rect width="20" height="5" rx="2.5" transform="matrix(0.940121 0.340841 0.340841 -0.940121 647 516.699)" fill="white"/>
<rect width="20" height="5" rx="2.5" transform="matrix(0.940121 0.340841 0.340841 -0.940121 647 516.699)" fill="white"/>
<rect width="20" height="5" rx="2.5" transform="matrix(0.940121 0.340841 0.340841 -0.940121 647 516.699)" fill="white"/>
<rect width="20" height="5" rx="2.5" transform="matrix(0.940121 0.340841 0.340841 -0.940121 672 525.699)" fill="white"/>
<rect width="20" height="5" rx="2.5" transform="matrix(0.940121 0.340841 0.340841 -0.940121 672 525.699)" fill="white"/>
<rect width="20" height="5" rx="2.5" transform="matrix(0.940121 0.340841 0.340841 -0.940121 672 525.699)" fill="white"/>
<rect width="20" height="5" rx="2.5" transform="matrix(0.940121 0.340841 0.340841 -0.940121 672 525.699)" fill="white"/>
<rect width="20" height="5" rx="2.5" transform="matrix(0.877614 0.479367 0.479367 -0.877614 698 534.387)" fill="white"/>
<rect width="20" height="5" rx="2.5" transform="matrix(0.877614 0.479367 0.479367 -0.877614 698 534.387)" fill="white"/>
<rect width="20" height="5" rx="2.5" transform="matrix(0.877614 0.479367 0.479367 -0.877614 698 534.387)" fill="white"/>
<rect width="20" height="5" rx="2.5" transform="matrix(0.877614 0.479367 0.479367 -0.877614 698 534.387)" fill="white"/>
<rect width="20" height="5" rx="2.5" transform="matrix(0.888803 0.458289 0.458289 -0.888803 597 496.445)" fill="white"/>
<rect width="20" height="5" rx="2.5" transform="matrix(0.888803 0.458289 0.458289 -0.888803 597 496.445)" fill="white"/>
<rect width="20" height="5" rx="2.5" transform="matrix(0.888803 0.458289 0.458289 -0.888803 597 496.445)" fill="white"/>
<rect width="20" height="5" rx="2.5" transform="matrix(0.888803 0.458289 0.458289 -0.888803 597 496.445)" fill="white"/>
<rect width="20" height="5" rx="2.5" transform="matrix(0.749485 0.662021 0.662021 -0.749485 574 476.746)" fill="white"/>
<rect width="20" height="5" rx="2.5" transform="matrix(0.749485 0.662021 0.662021 -0.749485 574 476.746)" fill="white"/>
<rect width="20" height="5" rx="2.5" transform="matrix(0.749485 0.662021 0.662021 -0.749485 574 476.746)" fill="white"/>
<rect width="20" height="5" rx="2.5" transform="matrix(0.749485 0.662021 0.662021 -0.749485 574 476.746)" fill="white"/>
<rect width="20" height="5" rx="2.5" transform="matrix(0.954217 0.299114 0.299114 -0.954217 464 331.77)" fill="white"/>
<rect width="20" height="5" rx="2.5" transform="matrix(0.954217 0.299114 0.299114 -0.954217 464 331.77)" fill="white"/>
<rect width="20" height="5" rx="2.5" transform="matrix(0.954217 0.299114 0.299114 -0.954217 464 331.77)" fill="white"/>
<rect width="20" height="5" rx="2.5" transform="matrix(0.954217 0.299114 0.299114 -0.954217 464 331.77)" fill="white"/>
<rect width="20" height="5" rx="2.5" transform="matrix(0.865897 0.500223 0.500223 -0.865897 487.381 340.539)" fill="white"/>
<rect width="20" height="5" rx="2.5" transform="matrix(0.865897 0.500223 0.500223 -0.865897 487.381 340.539)" fill="white"/>
<rect width="20" height="5" rx="2.5" transform="matrix(0.865897 0.500223 0.500223 -0.865897 487.381 340.539)" fill="white"/>
<rect width="20" height="5" rx="2.5" transform="matrix(0.865897 0.500223 0.500223 -0.865897 487.381 340.539)" fill="white"/>
<rect width="20" height="5" rx="2.5" transform="matrix(0.549269 0.835645 0.835645 -0.549269 507 359.746)" fill="white"/>
<rect width="20" height="5" rx="2.5" transform="matrix(0.549269 0.835645 0.835645 -0.549269 507 359.746)" fill="white"/>
<rect width="20" height="5" rx="2.5" transform="matrix(0.549269 0.835645 0.835645 -0.549269 507 359.746)" fill="white"/>
<rect width="20" height="5" rx="2.5" transform="matrix(0.549269 0.835645 0.835645 -0.549269 507 359.746)" fill="white"/>
<rect width="20" height="5" rx="2.5" transform="matrix(0.570206 0.821502 0.821502 -0.570206 522 383.852)" fill="white"/>
<rect width="20" height="5" rx="2.5" transform="matrix(0.570206 0.821502 0.821502 -0.570206 522 383.852)" fill="white"/>
<rect width="20" height="5" rx="2.5" transform="matrix(0.570206 0.821502 0.821502 -0.570206 522 383.852)" fill="white"/>
<rect width="20" height="5" rx="2.5" transform="matrix(0.570206 0.821502 0.821502 -0.570206 522 383.852)" fill="white"/>
<rect width="20" height="5" rx="2.5" transform="matrix(0.570206 0.821502 0.821502 -0.570206 534 406.852)" fill="white"/>
<rect width="20" height="5" rx="2.5" transform="matrix(0.570206 0.821502 0.821502 -0.570206 534 406.852)" fill="white"/>
<rect width="20" height="5" rx="2.5" transform="matrix(0.570206 0.821502 0.821502 -0.570206 534 406.852)" fill="white"/>
<rect width="20" height="5" rx="2.5" transform="matrix(0.570206 0.821502 0.821502 -0.570206 534 406.852)" fill="white"/>
<rect width="20" height="5" rx="2.5" transform="matrix(0.570206 0.821502 0.821502 -0.570206 546 429.852)" fill="white"/>
<rect width="20" height="5" rx="2.5" transform="matrix(0.570206 0.821502 0.821502 -0.570206 546 429.852)" fill="white"/>
<rect width="20" height="5" rx="2.5" transform="matrix(0.570206 0.821502 0.821502 -0.570206 546 429.852)" fill="white"/>
<rect width="20" height="5" rx="2.5" transform="matrix(0.570206 0.821502 0.821502 -0.570206 546 429.852)" fill="white"/>
<rect width="20" height="5" rx="2.5" transform="matrix(0.570206 0.821502 0.821502 -0.570206 558 452.852)" fill="white"/>
<rect width="20" height="5" rx="2.5" transform="matrix(0.570206 0.821502 0.821502 -0.570206 558 452.852)" fill="white"/>
<rect width="20" height="5" rx="2.5" transform="matrix(0.570206 0.821502 0.821502 -0.570206 558 452.852)" fill="white"/>
<rect width="20" height="5" rx="2.5" transform="matrix(0.570206 0.821502 0.821502 -0.570206 558 452.852)" fill="white"/>
<rect width="20" height="5" rx="2.5" transform="matrix(0.999977 -0.00682871 -0.00682871 -0.999977 436.033 330.137)" fill="white"/>
<rect width="20" height="5" rx="2.5" transform="matrix(0.999977 -0.00682871 -0.00682871 -0.999977 436.033 330.137)" fill="white"/>
<rect width="20" height="5" rx="2.5" transform="matrix(0.999977 -0.00682871 -0.00682871 -0.999977 436.033 330.137)" fill="white"/>
<rect width="20" height="5" rx="2.5" transform="matrix(0.999977 -0.00682871 -0.00682871 -0.999977 436.033 330.137)" fill="white"/>
<rect width="20" height="5" rx="2.5" transform="matrix(0.998309 0.0581374 0.0581374 -0.998309 405 328.992)" fill="white"/>
<rect width="20" height="5" rx="2.5" transform="matrix(0.998309 0.0581374 0.0581374 -0.998309 405 328.992)" fill="white"/>
<rect width="20" height="5" rx="2.5" transform="matrix(0.998309 0.0581374 0.0581374 -0.998309 405 328.992)" fill="white"/>
<rect width="20" height="5" rx="2.5" transform="matrix(0.998309 0.0581374 0.0581374 -0.998309 405 328.992)" fill="white"/>
<rect width="20" height="5" rx="2.5" transform="matrix(0.996858 0.0792087 0.0792087 -0.996858 374 325.984)" fill="white"/>
<rect width="20" height="5" rx="2.5" transform="matrix(0.996858 0.0792087 0.0792087 -0.996858 374 325.984)" fill="white"/>
<rect width="20" height="5" rx="2.5" transform="matrix(0.996858 0.0792087 0.0792087 -0.996858 374 325.984)" fill="white"/>
<rect width="20" height="5" rx="2.5" transform="matrix(0.996858 0.0792087 0.0792087 -0.996858 374 325.984)" fill="white"/>
<rect width="20" height="5" rx="2.5" transform="matrix(0.964988 0.262293 0.262293 -0.964988 337.861 319.074)" fill="white"/>
<rect width="20" height="5" rx="2.5" transform="matrix(0.964988 0.262293 0.262293 -0.964988 337.861 319.074)" fill="white"/>
<rect width="20" height="5" rx="2.5" transform="matrix(0.964988 0.262293 0.262293 -0.964988 337.861 319.074)" fill="white"/>
<rect width="20" height="5" rx="2.5" transform="matrix(0.964988 0.262293 0.262293 -0.964988 337.861 319.074)" fill="white"/>
<rect width="20" height="5" rx="2.5" transform="matrix(0.840616 0.541631 0.541631 -0.840616 212 234.203)" fill="white"/>
<rect width="20" height="5" rx="2.5" transform="matrix(0.840616 0.541631 0.541631 -0.840616 212 234.203)" fill="white"/>
<rect width="20" height="5" rx="2.5" transform="matrix(0.840616 0.541631 0.541631 -0.840616 212 234.203)" fill="white"/>
<rect width="20" height="5" rx="2.5" transform="matrix(0.840616 0.541631 0.541631 -0.840616 212 234.203)" fill="white"/>
<rect width="20" height="5" rx="2.5" transform="matrix(0.840616 0.541631 0.541631 -0.840616 165 202.203)" fill="white"/>
<rect width="20" height="5" rx="2.5" transform="matrix(0.840616 0.541631 0.541631 -0.840616 165 202.203)" fill="white"/>
<rect width="20" height="5" rx="2.5" transform="matrix(0.840616 0.541631 0.541631 -0.840616 165 202.203)" fill="white"/>
<rect width="20" height="5" rx="2.5" transform="matrix(0.840616 0.541631 0.541631 -0.840616 165 202.203)" fill="white"/>
<rect width="20" height="5" rx="2.5" transform="matrix(0.840616 0.541631 0.541631 -0.840616 189 219.203)" fill="white"/>
<rect width="20" height="5" rx="2.5" transform="matrix(0.840616 0.541631 0.541631 -0.840616 189 219.203)" fill="white"/>
<rect width="20" height="5" rx="2.5" transform="matrix(0.840616 0.541631 0.541631 -0.840616 189 219.203)" fill="white"/>
<rect width="20" height="5" rx="2.5" transform="matrix(0.840616 0.541631 0.541631 -0.840616 189 219.203)" fill="white"/>
<rect width="20" height="5" rx="2.5" transform="matrix(0.840616 0.541631 0.541631 -0.840616 23 139.203)" fill="white"/>
<rect width="20" height="5" rx="2.5" transform="matrix(0.840616 0.541631 0.541631 -0.840616 23 139.203)" fill="white"/>
<rect width="20" height="5" rx="2.5" transform="matrix(0.840616 0.541631 0.541631 -0.840616 23 139.203)" fill="white"/>
<rect width="20" height="5" rx="2.5" transform="matrix(0.840616 0.541631 0.541631 -0.840616 23 139.203)" fill="white"/>
<rect width="20" height="5" rx="2.5" transform="matrix(0.89108 0.453846 0.453846 -0.89108 45.7148 153.207)" fill="white"/>
<rect width="20" height="5" rx="2.5" transform="matrix(0.89108 0.453846 0.453846 -0.89108 45.7148 153.207)" fill="white"/>
<rect width="20" height="5" rx="2.5" transform="matrix(0.89108 0.453846 0.453846 -0.89108 45.7148 153.207)" fill="white"/>
<rect width="20" height="5" rx="2.5" transform="matrix(0.89108 0.453846 0.453846 -0.89108 45.7148 153.207)" fill="white"/>
<rect width="20" height="5" rx="2.5" transform="matrix(0.932408 0.361408 0.361408 -0.932408 69.7285 164.844)" fill="white"/>
<rect width="20" height="5" rx="2.5" transform="matrix(0.932408 0.361408 0.361408 -0.932408 69.7285 164.844)" fill="white"/>
<rect width="20" height="5" rx="2.5" transform="matrix(0.932408 0.361408 0.361408 -0.932408 69.7285 164.844)" fill="white"/>
<rect width="20" height="5" rx="2.5" transform="matrix(0.932408 0.361408 0.361408 -0.932408 69.7285 164.844)" fill="white"/>
<rect width="20" height="5" rx="2.5" transform="matrix(0.913879 0.405987 0.405987 -0.913879 94.9473 172.461)" fill="white"/>
<rect width="20" height="5" rx="2.5" transform="matrix(0.913879 0.405987 0.405987 -0.913879 94.9473 172.461)" fill="white"/>
<rect width="20" height="5" rx="2.5" transform="matrix(0.913879 0.405987 0.405987 -0.913879 94.9473 172.461)" fill="white"/>
<rect width="20" height="5" rx="2.5" transform="matrix(0.913879 0.405987 0.405987 -0.913879 94.9473 172.461)" fill="white"/>
<rect width="20" height="5" rx="2.5" transform="matrix(0.913879 0.405987 0.405987 -0.913879 119 180.57)" fill="white"/>
<rect width="20" height="5" rx="2.5" transform="matrix(0.913879 0.405987 0.405987 -0.913879 119 180.57)" fill="white"/>
<rect width="20" height="5" rx="2.5" transform="matrix(0.913879 0.405987 0.405987 -0.913879 119 180.57)" fill="white"/>
<rect width="20" height="5" rx="2.5" transform="matrix(0.913879 0.405987 0.405987 -0.913879 119 180.57)" fill="white"/>
<rect width="20" height="5" rx="2.5" transform="matrix(0.353616 0.935391 0.935391 -0.353616 11 108.77)" fill="white"/>
<rect width="20" height="5" rx="2.5" transform="matrix(0.353616 0.935391 0.935391 -0.353616 11 108.77)" fill="white"/>
<rect width="20" height="5" rx="2.5" transform="matrix(0.353616 0.935391 0.935391 -0.353616 11 108.77)" fill="white"/>
<rect width="20" height="5" rx="2.5" transform="matrix(0.353616 0.935391 0.935391 -0.353616 11 108.77)" fill="white"/>
<rect width="20" height="5" rx="2.5" transform="matrix(0.0910986 0.995842 0.995842 -0.0910986 7 75.457)" fill="white"/>
<rect width="20" height="5" rx="2.5" transform="matrix(0.0910986 0.995842 0.995842 -0.0910986 7 75.457)" fill="white"/>
<rect width="20" height="5" rx="2.5" transform="matrix(0.0910986 0.995842 0.995842 -0.0910986 7 75.457)" fill="white"/>
<rect width="20" height="5" rx="2.5" transform="matrix(0.0910986 0.995842 0.995842 -0.0910986 7 75.457)" fill="white"/>
<rect width="20" height="5" rx="2.5" transform="matrix(0.0910986 0.995842 0.995842 -0.0910986 4 41.457)" fill="white"/>
<rect width="20" height="5" rx="2.5" transform="matrix(0.0910986 0.995842 0.995842 -0.0910986 4 41.457)" fill="white"/>
<rect width="20" height="5" rx="2.5" transform="matrix(0.0910986 0.995842 0.995842 -0.0910986 4 41.457)" fill="white"/>
<rect width="20" height="5" rx="2.5" transform="matrix(0.0910986 0.995842 0.995842 -0.0910986 4 41.457)" fill="white"/>
<rect width="20" height="5" rx="2.5" transform="matrix(0.698909 0.71521 0.71521 -0.698909 766 591.496)" fill="white"/>
<rect width="20" height="5" rx="2.5" transform="matrix(0.698909 0.71521 0.71521 -0.698909 766 591.496)" fill="white"/>
<rect width="20" height="5" rx="2.5" transform="matrix(0.698909 0.71521 0.71521 -0.698909 766 591.496)" fill="white"/>
<rect width="20" height="5" rx="2.5" transform="matrix(0.698909 0.71521 0.71521 -0.698909 766 591.496)" fill="white"/>
<rect width="20" height="5" rx="2.5" transform="matrix(0.698909 0.71521 0.71521 -0.698909 748 572.496)" fill="white"/>
<rect width="20" height="5" rx="2.5" transform="matrix(0.698909 0.71521 0.71521 -0.698909 748 572.496)" fill="white"/>
<rect width="20" height="5" rx="2.5" transform="matrix(0.698909 0.71521 0.71521 -0.698909 748 572.496)" fill="white"/>
<rect width="20" height="5" rx="2.5" transform="matrix(0.698909 0.71521 0.71521 -0.698909 748 572.496)" fill="white"/>
<rect width="20" height="5" rx="2.5" transform="matrix(0.698909 0.71521 0.71521 -0.698909 725 548.496)" fill="white"/>
<rect width="20" height="5" rx="2.5" transform="matrix(0.698909 0.71521 0.71521 -0.698909 725 548.496)" fill="white"/>
<rect width="20" height="5" rx="2.5" transform="matrix(0.698909 0.71521 0.71521 -0.698909 725 548.496)" fill="white"/>
<rect width="20" height="5" rx="2.5" transform="matrix(0.698909 0.71521 0.71521 -0.698909 725 548.496)" fill="white"/>
<rect width="20" height="5" rx="2.5" transform="matrix(0.840616 0.541631 0.541631 -0.840616 212 234.203)" fill="white"/>
<rect width="20" height="5" rx="2.5" transform="matrix(0.840616 0.541631 0.541631 -0.840616 212 234.203)" fill="white"/>
<rect width="20" height="5" rx="2.5" transform="matrix(0.840616 0.541631 0.541631 -0.840616 212 234.203)" fill="white"/>
<rect width="20" height="5" rx="2.5" transform="matrix(0.840616 0.541631 0.541631 -0.840616 212 234.203)" fill="white"/>
<rect width="20" height="5" rx="2.5" transform="matrix(0.840616 0.541631 0.541631 -0.840616 237 252.203)" fill="white"/>
<rect width="20" height="5" rx="2.5" transform="matrix(0.840616 0.541631 0.541631 -0.840616 237 252.203)" fill="white"/>
<rect width="20" height="5" rx="2.5" transform="matrix(0.840616 0.541631 0.541631 -0.840616 237 252.203)" fill="white"/>
<rect width="20" height="5" rx="2.5" transform="matrix(0.840616 0.541631 0.541631 -0.840616 237 252.203)" fill="white"/>
<rect width="20" height="5" rx="2.5" transform="matrix(0.840616 0.541631 0.541631 -0.840616 262 270.203)" fill="white"/>
<rect width="20" height="5" rx="2.5" transform="matrix(0.840616 0.541631 0.541631 -0.840616 262 270.203)" fill="white"/>
<rect width="20" height="5" rx="2.5" transform="matrix(0.840616 0.541631 0.541631 -0.840616 262 270.203)" fill="white"/>
<rect width="20" height="5" rx="2.5" transform="matrix(0.840616 0.541631 0.541631 -0.840616 262 270.203)" fill="white"/>
<rect width="20" height="5" rx="2.5" transform="matrix(0.840616 0.541631 0.541631 -0.840616 287 288.203)" fill="white"/>
<rect width="20" height="5" rx="2.5" transform="matrix(0.840616 0.541631 0.541631 -0.840616 287 288.203)" fill="white"/>
<rect width="20" height="5" rx="2.5" transform="matrix(0.840616 0.541631 0.541631 -0.840616 287 288.203)" fill="white"/>
<rect width="20" height="5" rx="2.5" transform="matrix(0.840616 0.541631 0.541631 -0.840616 287 288.203)" fill="white"/>
<rect width="20" height="5" rx="2.5" transform="matrix(0.840616 0.541631 0.541631 -0.840616 312 306.203)" fill="white"/>
<rect width="20" height="5" rx="2.5" transform="matrix(0.840616 0.541631 0.541631 -0.840616 312 306.203)" fill="white"/>
<rect width="20" height="5" rx="2.5" transform="matrix(0.840616 0.541631 0.541631 -0.840616 312 306.203)" fill="white"/>
<rect width="20" height="5" rx="2.5" transform="matrix(0.840616 0.541631 0.541631 -0.840616 312 306.203)" fill="white"/>
<rect width="20" height="5" rx="2.5" transform="matrix(0.840616 0.541631 0.541631 -0.840616 165 202.203)" fill="white"/>
<rect width="20" height="5" rx="2.5" transform="matrix(0.840616 0.541631 0.541631 -0.840616 165 202.203)" fill="white"/>
<rect width="20" height="5" rx="2.5" transform="matrix(0.840616 0.541631 0.541631 -0.840616 165 202.203)" fill="white"/>
<rect width="20" height="5" rx="2.5" transform="matrix(0.840616 0.541631 0.541631 -0.840616 165 202.203)" fill="white"/>
<rect width="20" height="5" rx="2.5" transform="matrix(0.840616 0.541631 0.541631 -0.840616 143 189.203)" fill="white"/>
<rect width="20" height="5" rx="2.5" transform="matrix(0.840616 0.541631 0.541631 -0.840616 143 189.203)" fill="white"/>
<rect width="20" height="5" rx="2.5" transform="matrix(0.840616 0.541631 0.541631 -0.840616 143 189.203)" fill="white"/>
<rect width="20" height="5" rx="2.5" transform="matrix(0.840616 0.541631 0.541631 -0.840616 143 189.203)" fill="white"/>
<rect width="20" height="5" rx="2.5" transform="matrix(0.840616 0.541631 0.541631 -0.840616 189 219.203)" fill="white"/>
<rect width="20" height="5" rx="2.5" transform="matrix(0.840616 0.541631 0.541631 -0.840616 189 219.203)" fill="white"/>
<rect width="20" height="5" rx="2.5" transform="matrix(0.840616 0.541631 0.541631 -0.840616 189 219.203)" fill="white"/>
<rect width="20" height="5" rx="2.5" transform="matrix(0.840616 0.541631 0.541631 -0.840616 189 219.203)" fill="white"/>
</svg>
