<svg width="48" height="182" viewBox="0 0 48 182" fill="none" xmlns="http://www.w3.org/2000/svg">
<path d="M9.00878 24.1706L16.0877 3.69311C16.6449 2.08129 18.1628 1 19.8682 1H28.3744C30.1375 1 31.6926 2.15434 32.2031 3.8419L38.2995 23.9966C38.6019 24.9962 39.2832 25.8379 40.1978 26.3419L44.1292 28.508C45.4059 29.2115 46.1988 30.5537 46.1988 32.0114V39.0614V45.2004V55.4319L46.7294 169.616V176.164L46.6507 176.771C46.3922 178.765 44.6942 180.257 42.6839 180.257H42.485H6.31491C5.67859 180.257 5.05145 180.105 4.48557 179.814L3.84457 179.485C2.78021 178.937 2.01687 177.942 1.76412 176.772L1.72303 176.582C1.66305 176.304 1.63281 176.021 1.63281 175.737V168.388V55.0227V45.2004V31.9261C1.63281 30.5141 2.37727 29.2066 3.59159 28.4861L7.26951 26.3037C8.08334 25.8208 8.6996 25.065 9.00878 24.1706Z" fill="#0102BF"/>
<path d="M1.63281 45.2004V31.9261C1.63281 30.5141 2.37727 29.2066 3.59159 28.4861L7.26951 26.3037C8.08334 25.8208 8.6996 25.065 9.00878 24.1706L16.0877 3.69311C16.6449 2.08129 18.1628 1 19.8682 1H28.3744C30.1375 1 31.6926 2.15434 32.2031 3.8419L38.2995 23.9966C38.6019 24.9962 39.2832 25.8379 40.1978 26.3419L44.1292 28.508C45.4059 29.2115 46.1988 30.5537 46.1988 32.0114V39.0614V45.2004M1.63281 45.2004H46.1988M1.63281 45.2004V55.0227M46.1988 45.2004V55.4319M46.1988 55.4319L46.7293 169.616V176.164L46.6507 176.771C46.3922 178.765 44.6942 180.257 42.6839 180.257H42.485H6.31491C5.67859 180.257 5.05145 180.105 4.48557 179.814L3.84457 179.485C2.78021 178.937 2.01687 177.942 1.76412 176.772L1.72303 176.582C1.66305 176.304 1.63281 176.021 1.63281 175.737V168.388V55.0227M46.1988 55.4319L1.63281 55.0227" stroke="black" stroke-width="2"/>
<rect x="1.63281" y="45.2031" width="44.566" height="9.8223" fill="black"/>
<rect x="1.63281" y="156.52" width="45.6271" height="9.8223" fill="black"/>
<rect x="1.63281" y="146.699" width="44.566" height="5.72968" fill="black"/>
<path d="M1.63281 140.148H46.1988V143.423H1.63281V140.148Z" fill="black"/>
<rect x="1.63281" y="59.9336" width="44.566" height="5.72968" fill="black"/>
<rect x="1.63281" y="69.7578" width="44.566" height="3.2741" fill="black"/>
<ellipse cx="24.1235" cy="104.134" rx="8.6958" ry="24.5558" fill="black"/>
</svg>
