<svg width="48" height="182" viewBox="0 0 48 182" fill="none" xmlns="http://www.w3.org/2000/svg">
<path d="M8.71075 24.7996L15.7546 4.42358C16.3118 2.81175 17.8297 1.73047 19.5351 1.73047H27.9821C29.7452 1.73047 31.3003 2.88481 31.8108 4.57236L37.8765 24.6256C38.1789 25.6252 38.8602 26.4669 39.7748 26.9709L43.6755 29.1201C44.9522 29.8236 45.7451 31.1658 45.7451 32.6235V39.6346V45.7482V55.9375L46.2735 169.65V176.171L46.197 176.761C45.9385 178.755 44.2405 180.247 42.2302 180.247H42.0466H6.03003C5.39371 180.247 4.76657 180.095 4.2007 179.804L3.57284 179.481C2.50848 178.934 1.74515 177.939 1.49239 176.769L1.4535 176.589C1.39352 176.311 1.36328 176.028 1.36328 175.744V168.427V55.5299V45.7482V32.5381C1.36328 31.1261 2.10774 29.8187 3.32206 29.0982L6.97148 26.9327C7.78531 26.4498 8.40156 25.694 8.71075 24.7996Z" fill="#CB0EA8"/>
<path d="M1.36328 45.7482V32.5381C1.36328 31.1261 2.10774 29.8187 3.32206 29.0982L6.97148 26.9327C7.78531 26.4498 8.40156 25.694 8.71075 24.7996L15.7546 4.42358C16.3118 2.81175 17.8297 1.73047 19.5351 1.73047H27.9821C29.7452 1.73047 31.3003 2.88481 31.8108 4.57236L37.8765 24.6256C38.1789 25.6252 38.8602 26.4669 39.7748 26.9709L43.6755 29.1201C44.9522 29.8236 45.7451 31.1658 45.7451 32.6235V39.6346V45.7482M1.36328 45.7482H45.7451M1.36328 45.7482V55.5299M45.7451 45.7482V55.9375M45.7451 55.9375L46.2735 169.65V176.171L46.197 176.761C45.9385 178.755 44.2405 180.247 42.2302 180.247H42.0466H6.03003C5.39371 180.247 4.76657 180.095 4.2007 179.804L3.57284 179.481C2.50848 178.934 1.74515 177.939 1.49239 176.769L1.4535 176.589C1.39352 176.311 1.36328 176.028 1.36328 175.744V168.427V55.5299M45.7451 55.9375L1.36328 55.5299" stroke="black" stroke-width="2"/>
<rect x="1.36328" y="45.7461" width="44.3818" height="9.78172" fill="black"/>
<rect x="1.36328" y="156.609" width="45.4385" height="9.78172" fill="black"/>
<rect x="1.36328" y="146.828" width="44.3818" height="5.706" fill="black"/>
<path d="M1.36328 140.305H45.7451V143.565H1.36328V140.305Z" fill="black"/>
<rect x="1.36328" y="60.4219" width="44.3818" height="5.706" fill="black"/>
<rect x="1.36328" y="70.207" width="44.3818" height="3.26057" fill="black"/>
<ellipse cx="23.7595" cy="104.439" rx="8.65987" ry="24.4543" fill="black"/>
</svg>
