<svg width="236" height="565" viewBox="0 0 236 565" fill="none" xmlns="http://www.w3.org/2000/svg">
<path d="M61.8151 83.9807L67.1012 71.5295C78.6514 44.3233 103.358 24.9503 132.534 20.2221C184.861 11.7422 232.335 52.1421 232.335 105.152L232.335 113.145C232.335 139.633 221.021 164.86 201.24 182.476L129.14 246.687L87.6977 207.577C54.0728 175.844 43.7475 126.538 61.8151 83.9807Z" fill="#13C6B7"/>
<path d="M129.14 246.687C129.14 284.371 71.7446 317.113 139.66 397.315C205.224 474.74 14.914 556.753 67.6856 651.832C121.43 748.663 16.6677 773 1 858.223M129.14 246.687L87.6977 207.577C54.0728 175.844 43.7475 126.538 61.8151 83.9807L67.1012 71.5295C78.6514 44.3233 103.358 24.9503 132.534 20.2221V20.2221C184.861 11.7423 232.335 52.1421 232.335 105.152L232.335 113.145C232.335 139.633 221.021 164.86 201.24 182.476L129.14 246.687Z" stroke="black"/>
<mask id="path-3-outside-1_548_9" maskUnits="userSpaceOnUse" x="117.168" y="89.4453" width="39" height="45" fill="black">
<rect fill="white" x="117.168" y="89.4453" width="39" height="45"/>
<path d="M136.761 133.205C126.681 133.205 118.617 124.853 118.617 113.909C118.617 102.101 126.489 90.8693 136.761 90.8693C146.841 90.8693 154.713 102.101 154.713 113.909C154.713 124.853 146.649 133.205 136.761 133.205ZM136.761 128.789C144.441 128.789 150.297 122.837 150.297 113.909C150.297 103.925 144.249 95.2853 136.761 95.2853C129.081 95.2853 123.033 103.925 123.033 113.909C123.033 122.837 128.889 128.789 136.761 128.789Z"/>
</mask>
<path d="M136.761 133.205C126.681 133.205 118.617 124.853 118.617 113.909C118.617 102.101 126.489 90.8693 136.761 90.8693C146.841 90.8693 154.713 102.101 154.713 113.909C154.713 124.853 146.649 133.205 136.761 133.205ZM136.761 128.789C144.441 128.789 150.297 122.837 150.297 113.909C150.297 103.925 144.249 95.2853 136.761 95.2853C129.081 95.2853 123.033 103.925 123.033 113.909C123.033 122.837 128.889 128.789 136.761 128.789Z" fill="#F2F2F7"/>
<path d="M136.761 132.205C127.283 132.205 119.617 124.352 119.617 113.909H117.617C117.617 125.355 126.079 134.205 136.761 134.205V132.205ZM119.617 113.909C119.617 108.217 121.518 102.671 124.634 98.5659C127.749 94.4621 132.015 91.8693 136.761 91.8693V89.8693C131.235 89.8693 126.43 92.8925 123.041 97.3567C119.653 101.82 117.617 107.794 117.617 113.909H119.617ZM136.761 91.8693C141.405 91.8693 145.624 94.456 148.719 98.5631C151.813 102.669 153.713 108.217 153.713 113.909H155.713C155.713 107.794 153.678 101.822 150.316 97.3595C146.955 92.8986 142.197 89.8693 136.761 89.8693V91.8693ZM153.713 113.909C153.713 124.359 146.041 132.205 136.761 132.205V134.205C147.258 134.205 155.713 125.347 155.713 113.909H153.713ZM136.761 129.789C145.06 129.789 151.297 123.321 151.297 113.909H149.297C149.297 122.354 143.823 127.789 136.761 127.789V129.789ZM151.297 113.909C151.297 108.725 149.729 103.861 147.15 100.27C144.573 96.6827 140.917 94.2853 136.761 94.2853V96.2853C140.094 96.2853 143.206 98.2079 145.525 101.437C147.842 104.662 149.297 109.11 149.297 113.909H151.297ZM136.761 94.2853C132.518 94.2853 128.813 96.6742 126.208 100.266C123.602 103.859 122.033 108.725 122.033 113.909H124.033C124.033 109.11 125.489 104.663 127.827 101.44C130.165 98.2165 133.325 96.2853 136.761 96.2853V94.2853ZM122.033 113.909C122.033 118.595 123.573 122.57 126.217 125.382C128.863 128.197 132.563 129.789 136.761 129.789V127.789C133.087 127.789 129.924 126.405 127.674 124.012C125.422 121.617 124.033 118.152 124.033 113.909H122.033Z" fill="white" mask="url(#path-3-outside-1_548_9)"/>
</svg>
