<svg width="48" height="182" viewBox="0 0 48 182" fill="none" xmlns="http://www.w3.org/2000/svg">
<path d="M8.98143 24.1706L16.0604 3.69311C16.6176 2.08129 18.1354 1 19.8408 1H28.3471C30.1101 1 31.6653 2.15434 32.1757 3.8419L38.2722 23.9966C38.5745 24.9962 39.2558 25.8379 40.1705 26.3419L44.1018 28.508C45.3785 29.2115 46.1715 30.5537 46.1715 32.0114V39.0614V45.2004V55.4319L46.702 169.616V176.164L46.6233 176.771C46.3649 178.765 44.6669 180.257 42.6565 180.257H42.4576H6.28756C5.65124 180.257 5.02411 180.105 4.45823 179.814L3.81722 179.485C2.75286 178.937 1.98953 177.942 1.73677 176.772L1.69568 176.582C1.63571 176.304 1.60547 176.021 1.60547 175.737V168.388V55.0227V45.2004V31.9261C1.60547 30.5141 2.34993 29.2066 3.56425 28.4861L7.24217 26.3037C8.05599 25.8208 8.67225 25.065 8.98143 24.1706Z" fill="#18C18A"/>
<path d="M1.60547 45.2004V31.9261C1.60547 30.5141 2.34993 29.2066 3.56425 28.4861L7.24217 26.3037C8.05599 25.8208 8.67225 25.065 8.98143 24.1706L16.0604 3.69311C16.6176 2.08129 18.1354 1 19.8408 1H28.3471C30.1101 1 31.6653 2.15434 32.1757 3.8419L38.2722 23.9966C38.5745 24.9962 39.2558 25.8379 40.1705 26.3419L44.1018 28.508C45.3785 29.2115 46.1715 30.5537 46.1715 32.0114V39.0614V45.2004M1.60547 45.2004H46.1715M1.60547 45.2004V55.0227M46.1715 45.2004V55.4319M46.1715 55.4319L46.702 169.616V176.164L46.6233 176.771C46.3649 178.765 44.6669 180.257 42.6565 180.257H42.4576H6.28756C5.65124 180.257 5.02411 180.105 4.45823 179.814L3.81722 179.485C2.75286 178.937 1.98953 177.942 1.73677 176.772L1.69568 176.582C1.63571 176.304 1.60547 176.021 1.60547 175.737V168.388V55.0227M46.1715 55.4319L1.60547 55.0227" stroke="black" stroke-width="2"/>
<rect x="1.60547" y="45.2031" width="44.566" height="9.8223" fill="black"/>
<rect x="1.60547" y="156.52" width="45.6271" height="9.8223" fill="black"/>
<rect x="1.60547" y="146.699" width="44.566" height="5.72968" fill="black"/>
<path d="M1.60547 140.148H46.1715V143.423H1.60547V140.148Z" fill="black"/>
<rect x="1.60547" y="59.9336" width="44.566" height="5.72968" fill="black"/>
<rect x="1.60547" y="69.7578" width="44.566" height="3.2741" fill="black"/>
<ellipse cx="24.0942" cy="104.134" rx="8.6958" ry="24.5558" fill="black"/>
</svg>
