<svg width="48" height="182" viewBox="0 0 48 182" fill="none" xmlns="http://www.w3.org/2000/svg">
<path d="M9.13964 24.1706L16.2186 3.69311C16.7758 2.08129 18.2936 1 19.999 1H28.5053C30.2683 1 31.8235 2.15434 32.334 3.8419L38.4304 23.9966C38.7327 24.9962 39.414 25.8379 40.3287 26.3419L44.26 28.508C45.5367 29.2115 46.3297 30.5537 46.3297 32.0114V39.0614V45.2004V55.4319L46.8602 169.616V176.164L46.7815 176.771C46.5231 178.765 44.8251 180.257 42.8147 180.257H42.6158H6.44577C5.80945 180.257 5.18231 180.105 4.61643 179.814L3.97543 179.485C2.91107 178.937 2.14773 177.942 1.89498 176.772L1.85389 176.582C1.79391 176.304 1.76367 176.021 1.76367 175.737V168.388V55.0227V45.2004V31.9261C1.76367 30.5141 2.50813 29.2066 3.72245 28.4861L7.40037 26.3037C8.2142 25.8208 8.83045 25.065 9.13964 24.1706Z" fill="#4A48CC"/>
<path d="M1.76367 45.2004V31.9261C1.76367 30.5141 2.50813 29.2066 3.72245 28.4861L7.40037 26.3037C8.2142 25.8208 8.83045 25.065 9.13964 24.1706L16.2186 3.69311C16.7758 2.08129 18.2936 1 19.999 1H28.5053C30.2683 1 31.8235 2.15434 32.334 3.8419L38.4304 23.9966C38.7327 24.9962 39.414 25.8379 40.3287 26.3419L44.26 28.508C45.5367 29.2115 46.3297 30.5537 46.3297 32.0114V39.0614V45.2004M1.76367 45.2004H46.3297M1.76367 45.2004V55.0227M46.3297 45.2004V55.4319M46.3297 55.4319L46.8602 169.616V176.164L46.7815 176.771C46.5231 178.765 44.8251 180.257 42.8147 180.257H42.6158H6.44577C5.80945 180.257 5.18231 180.105 4.61643 179.814L3.97543 179.485C2.91107 178.937 2.14773 177.942 1.89498 176.772L1.85389 176.582C1.79391 176.304 1.76367 176.021 1.76367 175.737V168.388V55.0227M46.3297 55.4319L1.76367 55.0227" stroke="black" stroke-width="2"/>
<rect x="1.76367" y="45.2031" width="44.566" height="9.8223" fill="black"/>
<rect x="1.76367" y="156.52" width="45.6271" height="9.8223" fill="black"/>
<rect x="1.76367" y="146.699" width="44.566" height="5.72968" fill="black"/>
<path d="M1.76367 140.148H46.3297V143.423H1.76367V140.148Z" fill="black"/>
<rect x="1.76367" y="59.9336" width="44.566" height="5.72968" fill="black"/>
<rect x="1.76367" y="69.7578" width="44.566" height="3.2741" fill="black"/>
<ellipse cx="24.2583" cy="104.134" rx="8.6958" ry="24.5558" fill="black"/>
</svg>
