<svg width="48" height="182" viewBox="0 0 48 182" fill="none" xmlns="http://www.w3.org/2000/svg">
<path d="M8.5537 24.1706L15.6326 3.69311C16.1898 2.08129 17.7077 1 19.4131 1H27.9193C29.6824 1 31.2376 2.15434 31.748 3.8419L37.8444 23.9966C38.1468 24.9962 38.8281 25.8379 39.7428 26.3419L43.6741 28.508C44.9508 29.2115 45.7437 30.5537 45.7437 32.0114V39.0614V45.2004V55.4319L46.2743 169.616V176.164L46.1956 176.771C45.9372 178.765 44.2391 180.257 42.2288 180.257H42.0299H5.85983C5.22351 180.257 4.59637 180.105 4.0305 179.814L3.38949 179.485C2.32513 178.937 1.5618 177.942 1.30904 176.772L1.26795 176.582C1.20798 176.304 1.17773 176.021 1.17773 175.737V168.388V55.0227V45.2004V31.9261C1.17773 30.5141 1.92219 29.2066 3.13652 28.4861L6.81444 26.3037C7.62826 25.8208 8.24452 25.065 8.5537 24.1706Z" fill="#FE6A00"/>
<path d="M1.17773 45.2004V31.9261C1.17773 30.5141 1.92219 29.2066 3.13652 28.4861L6.81444 26.3037C7.62826 25.8208 8.24452 25.065 8.5537 24.1706L15.6326 3.69311C16.1898 2.08129 17.7077 1 19.4131 1H27.9193C29.6824 1 31.2376 2.15434 31.748 3.8419L37.8444 23.9966C38.1468 24.9962 38.8281 25.8379 39.7428 26.3419L43.6741 28.508C44.9508 29.2115 45.7437 30.5537 45.7437 32.0114V39.0614V45.2004M1.17773 45.2004H45.7437M1.17773 45.2004V55.0227M45.7437 45.2004V55.4319M45.7437 55.4319L46.2743 169.616V176.164L46.1956 176.771C45.9372 178.765 44.2391 180.257 42.2288 180.257H42.0299H5.85983C5.22351 180.257 4.59637 180.105 4.0305 179.814L3.38949 179.485C2.32513 178.937 1.5618 177.942 1.30904 176.772L1.26795 176.582C1.20798 176.304 1.17773 176.021 1.17773 175.737V168.388V55.0227M45.7437 55.4319L1.17773 55.0227" stroke="black" stroke-width="2"/>
<rect x="1.17773" y="45.2031" width="44.566" height="9.8223" fill="black"/>
<rect x="1.17773" y="156.52" width="45.6271" height="9.8223" fill="black"/>
<rect x="1.17773" y="146.699" width="44.566" height="5.72968" fill="black"/>
<path d="M1.17773 140.148H45.7437V143.423H1.17773V140.148Z" fill="black"/>
<rect x="1.17773" y="59.9336" width="44.566" height="5.72968" fill="black"/>
<rect x="1.17773" y="69.7578" width="44.566" height="3.2741" fill="black"/>
<ellipse cx="23.6685" cy="104.134" rx="8.6958" ry="24.5558" fill="black"/>
</svg>
