<svg width="236" height="581" viewBox="0 0 236 581" fill="none" xmlns="http://www.w3.org/2000/svg">
<path d="M61.8151 83.9807L67.1012 71.5295C78.6514 44.3233 103.358 24.9503 132.534 20.2221C184.861 11.7422 232.335 52.1421 232.335 105.152L232.335 113.145C232.335 139.633 221.021 164.86 201.24 182.476L129.14 246.687L87.6977 207.577C54.0728 175.844 43.7475 126.538 61.8151 83.9807Z" fill="#13C6B7"/>
<path d="M129.14 246.687C129.14 284.371 71.7446 317.113 139.66 397.315C205.224 474.74 14.914 556.753 67.6856 651.832C121.43 748.663 16.6677 773 1 858.223M129.14 246.687L87.6977 207.577C54.0728 175.844 43.7475 126.538 61.8151 83.9807L67.1012 71.5295C78.6514 44.3233 103.358 24.9503 132.534 20.2221V20.2221C184.861 11.7423 232.335 52.1421 232.335 105.152L232.335 113.145C232.335 139.633 221.021 164.86 201.24 182.476L129.14 246.687Z" stroke="black"/>
<path d="M61.8151 83.9807L67.1012 71.5295C78.6514 44.3233 103.358 24.9503 132.534 20.2221C184.861 11.7422 232.335 52.1421 232.335 105.152L232.335 113.145C232.335 139.633 221.021 164.86 201.24 182.476L129.14 246.687L87.6977 207.577C54.0728 175.844 43.7475 126.538 61.8151 83.9807Z" fill="#F377FA"/>
<path d="M129.14 246.687C129.14 284.371 71.7446 317.113 139.66 397.315C205.224 474.74 14.914 556.753 67.6856 651.832C121.43 748.663 16.6677 773 1 858.223M129.14 246.687L87.6977 207.577C54.0728 175.844 43.7475 126.538 61.8151 83.9807L67.1012 71.5295C78.6514 44.3233 103.358 24.9503 132.534 20.2221V20.2221C184.861 11.7423 232.335 52.1421 232.335 105.152L232.335 113.145C232.335 139.633 221.021 164.86 201.24 182.476L129.14 246.687Z" stroke="black"/>
<mask id="path-5-outside-1_674_18" maskUnits="userSpaceOnUse" x="114.168" y="86.4453" width="47" height="52" fill="black">
<rect fill="white" x="114.168" y="86.4453" width="47" height="52"/>
<path d="M154.698 136.469L136.074 94.0373L119.658 136.757L115.626 134.837L133.482 88.2773L137.61 88.5653L158.922 135.125L154.698 136.469Z"/>
</mask>
<path d="M154.698 136.469L136.074 94.0373L119.658 136.757L115.626 134.837L133.482 88.2773L137.61 88.5653L158.922 135.125L154.698 136.469Z" fill="#F2F2F7"/>
<path d="M154.698 136.469L153.783 136.871L154.144 137.695L155.002 137.422L154.698 136.469ZM136.074 94.0373L136.99 93.6354L136.013 91.4093L135.141 93.6786L136.074 94.0373ZM119.658 136.757L119.228 137.66L120.204 138.125L120.592 137.116L119.658 136.757ZM115.626 134.837L114.693 134.479L114.362 135.343L115.196 135.74L115.626 134.837ZM133.482 88.2773L133.552 87.2797L132.814 87.2282L132.549 87.9192L133.482 88.2773ZM137.61 88.5653L138.52 88.1491L138.272 87.6091L137.68 87.5677L137.61 88.5653ZM158.922 135.125L159.226 136.078L160.302 135.736L159.832 134.709L158.922 135.125ZM155.614 136.067L136.99 93.6354L135.159 94.4392L153.783 136.871L155.614 136.067ZM135.141 93.6786L118.725 136.399L120.592 137.116L137.008 94.396L135.141 93.6786ZM120.088 135.854L116.056 133.934L115.196 135.74L119.228 137.66L120.088 135.854ZM116.56 135.195L134.416 88.6354L132.549 87.9192L114.693 134.479L116.56 135.195ZM133.413 89.2749L137.541 89.5629L137.68 87.5677L133.552 87.2797L133.413 89.2749ZM136.701 88.9815L158.013 135.542L159.832 134.709L138.52 88.1491L136.701 88.9815ZM158.619 134.172L154.395 135.516L155.002 137.422L159.226 136.078L158.619 134.172Z" fill="white" mask="url(#path-5-outside-1_674_18)"/>
</svg>
