<svg width="261" height="451" viewBox="0 0 261 451" fill="none" xmlns="http://www.w3.org/2000/svg">
<path d="M86.9048 89.002L92.1909 76.5508C103.741 49.3446 128.448 29.9715 157.624 25.2434C209.951 16.7635 257.425 57.1633 257.425 110.173L257.425 118.166C257.425 144.654 246.11 169.881 226.33 187.497L154.229 251.709L112.787 212.598C79.1625 180.866 68.8372 131.56 86.9048 89.002Z" fill="#F377FA"/>
<path d="M154.229 251.709C154.229 289.392 96.8341 322.135 164.75 402.336C230.314 479.762 55.1066 456.253 56.8459 566.985C58.5851 677.717 -239.986 674.238 -239.986 801.203M154.229 251.709L112.787 212.598C79.1625 180.866 68.8372 131.56 86.9048 89.002L92.1909 76.5508C103.741 49.3446 128.448 29.9715 157.624 25.2434V25.2434C209.951 16.7635 257.425 57.1633 257.425 110.173L257.425 118.166C257.425 144.654 246.11 169.881 226.33 187.497L154.229 251.709Z" stroke="black"/>
<mask id="path-3-outside-1_548_6" maskUnits="userSpaceOnUse" x="137" y="95.2227" width="47" height="52" fill="black">
<rect fill="white" x="137" y="95.2227" width="47" height="52"/>
<path d="M177.53 145.247L158.906 102.815L142.49 145.535L138.458 143.615L156.314 97.0547L160.442 97.3427L181.754 143.903L177.53 145.247Z"/>
</mask>
<path d="M177.53 145.247L158.906 102.815L142.49 145.535L138.458 143.615L156.314 97.0547L160.442 97.3427L181.754 143.903L177.53 145.247Z" fill="#F2F2F7"/>
<path d="M177.53 145.247L176.615 145.649L176.976 146.472L177.834 146.2L177.53 145.247ZM158.906 102.815L159.822 102.413L158.845 100.187L157.973 102.456L158.906 102.815ZM142.49 145.535L142.06 146.438L143.036 146.902L143.424 145.893L142.49 145.535ZM138.458 143.615L137.525 143.257L137.194 144.12L138.028 144.518L138.458 143.615ZM156.314 97.0547L156.384 96.0571L155.646 96.0056L155.381 96.6966L156.314 97.0547ZM160.442 97.3427L161.352 96.9265L161.104 96.3864L160.512 96.3451L160.442 97.3427ZM181.754 143.903L182.058 144.856L183.134 144.513L182.664 143.486L181.754 143.903ZM178.446 144.845L159.822 102.413L157.991 103.217L176.615 145.649L178.446 144.845ZM157.973 102.456L141.557 145.176L143.424 145.893L159.84 103.173L157.973 102.456ZM142.92 144.632L138.888 142.712L138.028 144.518L142.06 146.438L142.92 144.632ZM139.392 143.973L157.248 97.4127L155.381 96.6966L137.525 143.257L139.392 143.973ZM156.245 98.0522L160.373 98.3402L160.512 96.3451L156.384 96.0571L156.245 98.0522ZM159.533 97.7589L180.845 144.319L182.664 143.486L161.352 96.9265L159.533 97.7589ZM181.451 142.95L177.227 144.294L177.834 146.2L182.058 144.856L181.451 142.95Z" fill="white" mask="url(#path-3-outside-1_548_6)"/>
</svg>
