<svg width="48" height="182" viewBox="0 0 48 182" fill="none" xmlns="http://www.w3.org/2000/svg">
<path d="M9.27245 24.1706L16.3514 3.69311C16.9086 2.08129 18.4264 1 20.1319 1H28.6381C30.4012 1 31.9563 2.15434 32.4668 3.8419L38.5632 23.9966C38.8655 24.9962 39.5468 25.8379 40.4615 26.3419L44.3928 28.508C45.6695 29.2115 46.4625 30.5537 46.4625 32.0114V39.0614V45.2004V55.4319L46.993 169.616V176.164L46.9144 176.771C46.6559 178.765 44.9579 180.257 42.9475 180.257H42.7486H6.57858C5.94226 180.257 5.31512 180.105 4.74925 179.814L4.10824 179.485C3.04388 178.937 2.28055 177.942 2.02779 176.772L1.9867 176.582C1.92673 176.304 1.89648 176.021 1.89648 175.737V168.388V55.0227V45.2004V31.9261C1.89648 30.5141 2.64094 29.2066 3.85527 28.4861L7.53319 26.3037C8.34701 25.8208 8.96327 25.065 9.27245 24.1706Z" fill="#04B7D7"/>
<path d="M1.89648 45.2004V31.9261C1.89648 30.5141 2.64094 29.2066 3.85527 28.4861L7.53319 26.3037C8.34701 25.8208 8.96327 25.065 9.27245 24.1706L16.3514 3.69311C16.9086 2.08129 18.4264 1 20.1319 1H28.6381C30.4012 1 31.9563 2.15434 32.4668 3.8419L38.5632 23.9966C38.8655 24.9962 39.5468 25.8379 40.4615 26.3419L44.3928 28.508C45.6695 29.2115 46.4625 30.5537 46.4625 32.0114V39.0614V45.2004M1.89648 45.2004H46.4625M1.89648 45.2004V55.0227M46.4625 45.2004V55.4319M46.4625 55.4319L46.993 169.616V176.164L46.9144 176.771C46.6559 178.765 44.9579 180.257 42.9475 180.257H42.7486H6.57858C5.94226 180.257 5.31512 180.105 4.74925 179.814L4.10824 179.485C3.04388 178.937 2.28055 177.942 2.02779 176.772L1.9867 176.582C1.92673 176.304 1.89648 176.021 1.89648 175.737V168.388V55.0227M46.4625 55.4319L1.89648 55.0227" stroke="black" stroke-width="2"/>
<rect x="1.89648" y="45.2031" width="44.566" height="9.8223" fill="black"/>
<rect x="1.89648" y="156.52" width="45.6271" height="9.8223" fill="black"/>
<rect x="1.89648" y="146.699" width="44.566" height="5.72968" fill="black"/>
<path d="M1.89648 140.148H46.4625V143.423H1.89648V140.148Z" fill="black"/>
<rect x="1.89648" y="59.9336" width="44.566" height="5.72968" fill="black"/>
<rect x="1.89648" y="69.7578" width="44.566" height="3.2741" fill="black"/>
<ellipse cx="24.3872" cy="104.134" rx="8.6958" ry="24.5558" fill="black"/>
</svg>
