<svg width="48" height="182" viewBox="0 0 48 182" fill="none" xmlns="http://www.w3.org/2000/svg">
<path d="M8.37596 24.1706L15.4549 3.69311C16.0121 2.08129 17.53 1 19.2354 1H27.7416C29.5047 1 31.0598 2.15434 31.5703 3.8419L37.6667 23.9966C37.9691 24.9962 38.6504 25.8379 39.565 26.3419L43.4963 28.508C44.773 29.2115 45.566 30.5537 45.566 32.0114V39.0614V45.2004V55.4319L46.0965 169.616V176.164L46.0179 176.771C45.7594 178.765 44.0614 180.257 42.0511 180.257H41.8522H5.68209C5.04578 180.257 4.41864 180.105 3.85276 179.814L3.21175 179.485C2.14739 178.937 1.38406 177.942 1.1313 176.772L1.09022 176.582C1.03024 176.304 1 176.021 1 175.737V168.388V55.0227V45.2004V31.9261C1 30.5141 1.74446 29.2066 2.95878 28.4861L6.6367 26.3037C7.45052 25.8208 8.06678 25.065 8.37596 24.1706Z" fill="#FE0000"/>
<path d="M1 45.2004V31.9261C1 30.5141 1.74446 29.2066 2.95878 28.4861L6.6367 26.3037C7.45052 25.8208 8.06678 25.065 8.37596 24.1706L15.4549 3.69311C16.0121 2.08129 17.53 1 19.2354 1H27.7416C29.5047 1 31.0598 2.15434 31.5703 3.8419L37.6667 23.9966C37.9691 24.9962 38.6504 25.8379 39.565 26.3419L43.4963 28.508C44.773 29.2115 45.566 30.5537 45.566 32.0114V39.0614V45.2004M1 45.2004H45.566M1 45.2004V55.0227M45.566 45.2004V55.4319M45.566 55.4319L46.0965 169.616V176.164L46.0179 176.771C45.7594 178.765 44.0614 180.257 42.0511 180.257H41.8522H5.68209C5.04578 180.257 4.41864 180.105 3.85276 179.814L3.21175 179.485C2.14739 178.937 1.38406 177.942 1.1313 176.772L1.09022 176.582C1.03024 176.304 1 176.021 1 175.737V168.388V55.0227M45.566 55.4319L1 55.0227" stroke="black" stroke-width="2"/>
<rect x="1" y="45.2031" width="44.566" height="9.8223" fill="black"/>
<rect x="1" y="156.52" width="45.6271" height="9.8223" fill="black"/>
<rect x="1" y="146.699" width="44.566" height="5.72968" fill="black"/>
<path d="M1 140.148H45.566V143.423H1V140.148Z" fill="black"/>
<rect x="1" y="59.9336" width="44.566" height="5.72968" fill="black"/>
<rect x="1" y="69.7578" width="44.566" height="3.2741" fill="black"/>
<ellipse cx="23.4907" cy="104.134" rx="8.6958" ry="24.5558" fill="black"/>
</svg>
