<svg width="48" height="182" viewBox="0 0 48 182" fill="none" xmlns="http://www.w3.org/2000/svg">
<path d="M8.90801 24.7996L15.9519 4.42358C16.5091 2.81175 18.0269 1.73047 19.7323 1.73047H28.1794C29.9424 1.73047 31.4976 2.88481 32.0081 4.57236L38.0738 24.6256C38.3761 25.6252 39.0574 26.4669 39.9721 26.9709L43.8727 29.1201C45.1494 29.8236 45.9424 31.1658 45.9424 32.6235V39.6346V45.7482V55.9375L46.4707 169.65V176.171L46.3943 176.761C46.1358 178.755 44.4378 180.247 42.4275 180.247H42.2439H6.22729C5.59098 180.247 4.96384 180.095 4.39796 179.804L3.77011 179.481C2.70575 178.934 1.94242 177.939 1.68966 176.769L1.65076 176.589C1.59079 176.311 1.56055 176.028 1.56055 175.744V168.427V55.5299V45.7482V32.5381C1.56055 31.1261 2.305 29.8187 3.51933 29.0982L7.16875 26.9327C7.98257 26.4498 8.59883 25.694 8.90801 24.7996Z" fill="#272727"/>
<path d="M1.56055 45.7482V32.5381C1.56055 31.1261 2.305 29.8187 3.51933 29.0982L7.16875 26.9327C7.98257 26.4498 8.59883 25.694 8.90801 24.7996L15.9519 4.42358C16.5091 2.81175 18.0269 1.73047 19.7323 1.73047H28.1794C29.9424 1.73047 31.4976 2.88481 32.0081 4.57236L38.0738 24.6256C38.3761 25.6252 39.0574 26.4669 39.9721 26.9709L43.8727 29.1201C45.1494 29.8236 45.9424 31.1658 45.9424 32.6235V39.6346V45.7482M1.56055 45.7482H45.9424M1.56055 45.7482V55.5299M45.9424 45.7482V55.9375M45.9424 55.9375L46.4707 169.65V176.171L46.3943 176.761C46.1358 178.755 44.4378 180.247 42.4275 180.247H42.2439H6.2273C5.59098 180.247 4.96384 180.095 4.39796 179.804L3.77011 179.481C2.70575 178.934 1.94242 177.939 1.68966 176.769L1.65076 176.589C1.59079 176.311 1.56055 176.028 1.56055 175.744V168.427V55.5299M45.9424 55.9375L1.56055 55.5299" stroke="black" stroke-width="2"/>
<rect x="1.56055" y="45.7461" width="44.3818" height="9.78172" fill="black"/>
<rect x="1.56055" y="156.609" width="45.4385" height="9.78172" fill="black"/>
<rect x="1.56055" y="146.828" width="44.3818" height="5.706" fill="black"/>
<path d="M1.56055 140.305H45.9424V143.565H1.56055V140.305Z" fill="black"/>
<rect x="1.56055" y="60.4219" width="44.3818" height="5.706" fill="black"/>
<rect x="1.56055" y="70.207" width="44.3818" height="3.26057" fill="black"/>
<ellipse cx="23.9587" cy="104.439" rx="8.65987" ry="24.4543" fill="black"/>
</svg>
