<svg width="48" height="182" viewBox="0 0 48 182" fill="none" xmlns="http://www.w3.org/2000/svg">
<path d="M8.87792 24.1706L15.9568 3.69311C16.514 2.08129 18.0319 1 19.7373 1H28.2436C30.0066 1 31.5618 2.15434 32.0722 3.8419L38.1687 23.9966C38.471 24.9962 39.1523 25.8379 40.067 26.3419L43.9983 28.508C45.275 29.2115 46.0679 30.5537 46.0679 32.0114V39.0614V45.2004V55.4319L46.5985 169.616V176.164L46.5198 176.771C46.2614 178.765 44.5634 180.257 42.553 180.257H42.3541H6.18405C5.54773 180.257 4.92059 180.105 4.35471 179.814L3.71371 179.485C2.64935 178.937 1.88602 177.942 1.63326 176.772L1.59217 176.582C1.5322 176.304 1.50195 176.021 1.50195 175.737V168.388V55.0227V45.2004V31.9261C1.50195 30.5141 2.24641 29.2066 3.46073 28.4861L7.13866 26.3037C7.95248 25.8208 8.56874 25.065 8.87792 24.1706Z" fill="#FE3363"/>
<path d="M1.50195 45.2004V31.9261C1.50195 30.5141 2.24641 29.2066 3.46073 28.4861L7.13866 26.3037C7.95248 25.8208 8.56874 25.065 8.87792 24.1706L15.9568 3.69311C16.514 2.08129 18.0319 1 19.7373 1H28.2436C30.0066 1 31.5618 2.15434 32.0722 3.8419L38.1687 23.9966C38.471 24.9962 39.1523 25.8379 40.067 26.3419L43.9983 28.508C45.275 29.2115 46.0679 30.5537 46.0679 32.0114V39.0614V45.2004M1.50195 45.2004H46.0679M1.50195 45.2004V55.0227M46.0679 45.2004V55.4319M46.0679 55.4319L46.5985 169.616V176.164L46.5198 176.771C46.2614 178.765 44.5634 180.257 42.553 180.257H42.3541H6.18405C5.54773 180.257 4.92059 180.105 4.35471 179.814L3.71371 179.485C2.64935 178.937 1.88602 177.942 1.63326 176.772L1.59217 176.582C1.5322 176.304 1.50195 176.021 1.50195 175.737V168.388V55.0227M46.0679 55.4319L1.50195 55.0227" stroke="black" stroke-width="2"/>
<rect x="1.50195" y="45.2031" width="44.566" height="9.8223" fill="black"/>
<rect x="1.50195" y="156.52" width="45.6271" height="9.8223" fill="black"/>
<rect x="1.50195" y="146.699" width="44.566" height="5.72968" fill="black"/>
<path d="M1.50195 140.148H46.0679V143.423H1.50195V140.148Z" fill="black"/>
<rect x="1.50195" y="59.9336" width="44.566" height="5.72968" fill="black"/>
<rect x="1.50195" y="69.7578" width="44.566" height="3.2741" fill="black"/>
<ellipse cx="23.9927" cy="104.134" rx="8.6958" ry="24.5558" fill="black"/>
</svg>
