<svg width="236" height="519" viewBox="0 0 236 519" fill="none" xmlns="http://www.w3.org/2000/svg">
<path d="M61.8151 83.9807L67.1012 71.5295C78.6514 44.3233 103.358 24.9503 132.534 20.2221C184.861 11.7422 232.335 52.1421 232.335 105.152L232.335 113.145C232.335 139.633 221.021 164.86 201.24 182.476L129.14 246.687L87.6977 207.577C54.0728 175.844 43.7475 126.538 61.8151 83.9807Z" fill="#13C6B7"/>
<path d="M129.14 246.687C129.14 284.371 71.7446 317.113 139.66 397.315C205.224 474.74 14.914 556.753 67.6856 651.832C121.43 748.663 16.6677 773 1 858.223M129.14 246.687L87.6977 207.577C54.0728 175.844 43.7475 126.538 61.8151 83.9807L67.1012 71.5295C78.6514 44.3233 103.358 24.9503 132.534 20.2221V20.2221C184.861 11.7423 232.335 52.1421 232.335 105.152L232.335 113.145C232.335 139.633 221.021 164.86 201.24 182.476L129.14 246.687Z" stroke="black"/>
<path d="M61.8151 83.9807L67.1012 71.5295C78.6514 44.3233 103.358 24.9503 132.534 20.2221C184.861 11.7422 232.335 52.1421 232.335 105.152L232.335 113.145C232.335 139.633 221.021 164.86 201.24 182.476L129.14 246.687L87.6977 207.577C54.0728 175.844 43.7475 126.538 61.8151 83.9807Z" fill="#2DBEDF"/>
<path d="M129.14 246.687C129.14 284.371 71.7446 317.113 139.66 397.315C205.224 474.74 14.914 556.753 67.6856 651.832C121.43 748.663 16.6677 773 1 858.223M129.14 246.687L87.6977 207.577C54.0728 175.844 43.7475 126.538 61.8151 83.9807L67.1012 71.5295C78.6514 44.3233 103.358 24.9503 132.534 20.2221V20.2221C184.861 11.7423 232.335 52.1421 232.335 105.152L232.335 113.145C232.335 139.633 221.021 164.86 201.24 182.476L129.14 246.687Z" stroke="black"/>
<mask id="path-5-outside-1_674_13" maskUnits="userSpaceOnUse" x="120.168" y="85.4453" width="37" height="55" fill="black">
<rect fill="white" x="120.168" y="85.4453" width="37" height="55"/>
<path d="M151.539 139.253C150.003 129.173 145.107 100.373 143.955 93.2693C143.859 92.5013 143.283 92.0213 142.515 92.0213C136.275 92.2133 128.499 92.0213 121.395 91.4453L121.779 87.0293C128.979 87.7013 136.755 87.7973 142.227 87.7013C145.683 87.6053 147.987 89.6213 148.563 92.9813L155.955 138.485L151.539 139.253Z"/>
</mask>
<path d="M151.539 139.253C150.003 129.173 145.107 100.373 143.955 93.2693C143.859 92.5013 143.283 92.0213 142.515 92.0213C136.275 92.2133 128.499 92.0213 121.395 91.4453L121.779 87.0293C128.979 87.7013 136.755 87.7973 142.227 87.7013C145.683 87.6053 147.987 89.6213 148.563 92.9813L155.955 138.485L151.539 139.253Z" fill="#F2F2F7"/>
<path d="M151.539 139.253L150.55 139.404L150.704 140.413L151.71 140.239L151.539 139.253ZM143.955 93.2693L142.962 93.3933L142.965 93.4114L142.967 93.4294L143.955 93.2693ZM142.515 92.0213V91.0213H142.499L142.484 91.0218L142.515 92.0213ZM121.395 91.4453L120.398 91.3587L120.311 92.3608L121.314 92.442L121.395 91.4453ZM121.779 87.0293L121.872 86.0336L120.87 85.9401L120.782 86.9427L121.779 87.0293ZM142.227 87.7013L142.244 88.7012L142.254 88.7009L142.227 87.7013ZM148.563 92.9813L149.55 92.821L149.548 92.8123L148.563 92.9813ZM155.955 138.485L156.126 139.471L157.1 139.301L156.942 138.325L155.955 138.485ZM152.527 139.103C150.991 129.019 146.09 100.192 144.942 93.1092L142.967 93.4294C144.123 100.555 149.015 129.327 150.55 139.404L152.527 139.103ZM144.947 93.1453C144.785 91.8513 143.761 91.0213 142.515 91.0213V93.0213C142.687 93.0213 142.785 93.0729 142.836 93.1166C142.884 93.1578 142.943 93.2359 142.962 93.3933L144.947 93.1453ZM142.484 91.0218C136.283 91.2126 128.544 91.0217 121.475 90.4486L121.314 92.442C128.453 93.0209 136.266 93.214 142.545 93.0208L142.484 91.0218ZM122.391 91.5319L122.775 87.1159L120.782 86.9427L120.398 91.3587L122.391 91.5319ZM121.686 88.025C128.935 88.7016 136.751 88.7975 142.244 88.7012L142.209 86.7015C136.758 86.7971 129.022 86.701 121.872 86.0336L121.686 88.025ZM142.254 88.7009C143.776 88.6587 144.965 89.0794 145.829 89.8093C146.697 90.5422 147.321 91.6575 147.577 93.1503L149.548 92.8123C149.228 90.9451 148.412 89.3724 147.12 88.2813C145.824 87.1872 144.133 86.648 142.199 86.7017L142.254 88.7009ZM147.576 93.1417L154.968 138.646L156.942 138.325L149.55 92.821L147.576 93.1417ZM155.783 137.5L151.367 138.268L151.71 140.239L156.126 139.471L155.783 137.5Z" fill="white" mask="url(#path-5-outside-1_674_13)"/>
</svg>
