<svg width="502" height="436" viewBox="0 0 502 436" fill="none" xmlns="http://www.w3.org/2000/svg">
<path d="M327.903 89.002L333.189 76.5508C344.739 49.3446 369.446 29.9715 398.621 25.2434C450.948 16.7635 498.422 57.1633 498.422 110.173L498.422 118.166C498.422 144.654 487.108 169.881 467.327 187.497L395.227 251.708L353.785 212.598C320.16 180.866 309.835 131.56 327.903 89.002Z" fill="#2DBEDF"/>
<path d="M395.227 251.708C395.227 289.392 354.278 310.774 395.227 407.563C420.736 467.857 350.699 460.32 351.746 526.991C353.485 637.723 1.01208 674.238 1.0121 801.203M395.227 251.708L353.785 212.598C320.16 180.866 309.835 131.56 327.903 89.002L333.189 76.5508C344.739 49.3446 369.446 29.9715 398.621 25.2434V25.2434C450.948 16.7635 498.422 57.1633 498.422 110.173L498.422 118.166C498.422 144.654 487.108 169.881 467.327 187.497L395.227 251.708Z" stroke="black"/>
<mask id="path-3-outside-1_548_8" maskUnits="userSpaceOnUse" x="386.664" y="90.4688" width="38" height="55" fill="black">
<rect fill="white" x="386.664" y="90.4688" width="38" height="55"/>
<path d="M418.535 144.277C416.999 134.197 412.103 105.397 410.951 98.2927C410.855 97.5247 410.279 97.0447 409.511 97.0447C403.271 97.2367 395.495 97.0447 388.391 96.4688L388.775 92.0527C395.975 92.7247 403.751 92.8207 409.223 92.7247C412.679 92.6287 414.983 94.6447 415.559 98.0047L422.951 143.509L418.535 144.277Z"/>
</mask>
<path d="M418.535 144.277C416.999 134.197 412.103 105.397 410.951 98.2927C410.855 97.5247 410.279 97.0447 409.511 97.0447C403.271 97.2367 395.495 97.0447 388.391 96.4688L388.775 92.0527C395.975 92.7247 403.751 92.8207 409.223 92.7247C412.679 92.6287 414.983 94.6447 415.559 98.0047L422.951 143.509L418.535 144.277Z" fill="#F2F2F7"/>
<path d="M418.535 144.277L417.546 144.427L417.7 145.437L418.706 145.262L418.535 144.277ZM410.951 98.2927L409.958 98.4168L409.961 98.4348L409.964 98.4528L410.951 98.2927ZM409.511 97.0447V96.0447H409.495L409.48 96.0452L409.511 97.0447ZM388.391 96.4688L387.394 96.3821L387.307 97.3842L388.31 97.4655L388.391 96.4688ZM388.775 92.0527L388.868 91.0571L387.866 90.9636L387.778 91.9661L388.775 92.0527ZM409.223 92.7247L409.24 93.7246L409.25 93.7244L409.223 92.7247ZM415.559 98.0047L416.546 97.8444L416.544 97.8358L415.559 98.0047ZM422.951 143.509L423.122 144.494L424.096 144.325L423.938 143.348L422.951 143.509ZM419.523 144.126C417.987 134.043 413.086 105.215 411.938 98.1327L409.964 98.4528C411.119 105.578 416.011 134.351 417.546 144.427L419.523 144.126ZM411.943 98.1687C411.781 96.8747 410.757 96.0447 409.511 96.0447V98.0447C409.683 98.0447 409.781 98.0964 409.832 98.14C409.88 98.1813 409.939 98.2593 409.958 98.4168L411.943 98.1687ZM409.48 96.0452C403.279 96.236 395.54 96.0452 388.472 95.472L388.31 97.4655C395.449 98.0443 403.262 98.2375 409.541 98.0443L409.48 96.0452ZM389.387 96.5554L389.771 92.1394L387.778 91.9661L387.394 96.3821L389.387 96.5554ZM388.682 93.0484C395.931 93.725 403.747 93.821 409.24 93.7246L409.205 91.7249C403.755 91.8205 396.018 91.7245 388.868 91.0571L388.682 93.0484ZM409.25 93.7244C410.772 93.6821 411.961 94.1028 412.826 94.8328C413.693 95.5657 414.317 96.681 414.573 98.1737L416.544 97.8358C416.224 95.9685 415.408 94.3958 414.116 93.3047C412.82 92.2107 411.13 91.6714 409.195 91.7251L409.25 93.7244ZM414.572 98.1651L421.964 143.669L423.938 143.348L416.546 97.8444L414.572 98.1651ZM422.779 142.524L418.363 143.292L418.706 145.262L423.122 144.494L422.779 142.524Z" fill="white" mask="url(#path-3-outside-1_548_8)"/>
</svg>
