<svg width="48" height="182" viewBox="0 0 48 182" fill="none" xmlns="http://www.w3.org/2000/svg">
<path d="M9.20604 24.1706L16.285 3.69311C16.8422 2.08129 18.36 1 20.0654 1H28.5717C30.3347 1 31.8899 2.15434 32.4004 3.8419L38.4968 23.9966C38.7991 24.9962 39.4804 25.8379 40.3951 26.3419L44.3264 28.508C45.6031 29.2115 46.3961 30.5537 46.3961 32.0114V39.0614V45.2004V55.4319L46.9266 169.616V176.164L46.8479 176.771C46.5895 178.765 44.8915 180.257 42.8811 180.257H42.6822H6.51217C5.87585 180.257 5.24872 180.105 4.68284 179.814L4.04183 179.485C2.97747 178.937 2.21414 177.942 1.96138 176.772L1.92029 176.582C1.86032 176.304 1.83008 176.021 1.83008 175.737V168.388V55.0227V45.2004V31.9261C1.83008 30.5141 2.57454 29.2066 3.78886 28.4861L7.46678 26.3037C8.2806 25.8208 8.89686 25.065 9.20604 24.1706Z" fill="#028F02"/>
<path d="M1.83008 45.2004V31.9261C1.83008 30.5141 2.57454 29.2066 3.78886 28.4861L7.46678 26.3037C8.2806 25.8208 8.89686 25.065 9.20604 24.1706L16.285 3.69311C16.8422 2.08129 18.36 1 20.0654 1H28.5717C30.3347 1 31.8899 2.15434 32.4004 3.8419L38.4968 23.9966C38.7991 24.9962 39.4804 25.8379 40.3951 26.3419L44.3264 28.508C45.6031 29.2115 46.3961 30.5537 46.3961 32.0114V39.0614V45.2004M1.83008 45.2004H46.3961M1.83008 45.2004V55.0227M46.3961 45.2004V55.4319M46.3961 55.4319L46.9266 169.616V176.164L46.8479 176.771C46.5895 178.765 44.8915 180.257 42.8811 180.257H42.6822H6.51217C5.87585 180.257 5.24872 180.105 4.68284 179.814L4.04183 179.485C2.97747 178.937 2.21414 177.942 1.96138 176.772L1.92029 176.582C1.86032 176.304 1.83008 176.021 1.83008 175.737V168.388V55.0227M46.3961 55.4319L1.83008 55.0227" stroke="black" stroke-width="2"/>
<rect x="1.83008" y="45.2031" width="44.566" height="9.8223" fill="black"/>
<rect x="1.83008" y="156.52" width="45.6271" height="9.8223" fill="black"/>
<rect x="1.83008" y="146.699" width="44.566" height="5.72968" fill="black"/>
<path d="M1.83008 140.148H46.3961V143.423H1.83008V140.148Z" fill="black"/>
<rect x="1.83008" y="59.9336" width="44.566" height="5.72968" fill="black"/>
<rect x="1.83008" y="69.7578" width="44.566" height="3.2741" fill="black"/>
<ellipse cx="24.3208" cy="104.134" rx="8.6958" ry="24.5558" fill="black"/>
</svg>
