<svg width="48" height="181" viewBox="0 0 48 181" fill="none" xmlns="http://www.w3.org/2000/svg">
<path d="M8.46856 24.5535L15.5124 4.17749C16.0696 2.56566 17.5875 1.48438 19.2929 1.48438H27.7399C29.503 1.48438 31.0582 2.63872 31.5686 4.32627L37.6343 24.3795C37.9367 25.3791 38.618 26.2208 39.5327 26.7248L43.4333 28.874C44.71 29.5775 45.5029 30.9197 45.5029 32.3774V39.3885V45.5021V55.6914L46.0313 169.404V175.925L45.9548 176.515C45.6964 178.509 43.9983 180.001 41.988 180.001H41.8044H5.78784C5.15152 180.001 4.52438 179.849 3.95851 179.558L3.33066 179.235C2.2663 178.688 1.50296 177.692 1.2502 176.523L1.21131 176.343C1.15134 176.065 1.12109 175.782 1.12109 175.498V168.181V55.2838V45.5021V32.2921C1.12109 30.88 1.86555 29.5726 3.07987 28.8521L6.7293 26.6866C7.54312 26.2037 8.15938 25.4479 8.46856 24.5535Z" fill="#F8B428"/>
<path d="M1.12109 45.5021V32.2921C1.12109 30.88 1.86555 29.5726 3.07987 28.8521L6.7293 26.6866C7.54312 26.2037 8.15938 25.4479 8.46856 24.5535L15.5124 4.17749C16.0696 2.56566 17.5875 1.48438 19.2929 1.48438H27.7399C29.503 1.48438 31.0582 2.63872 31.5686 4.32627L37.6343 24.3795C37.9367 25.3791 38.618 26.2208 39.5327 26.7248L43.4333 28.874C44.71 29.5775 45.5029 30.9197 45.5029 32.3774V39.3885V45.5021M1.12109 45.5021H45.5029M1.12109 45.5021V55.2838M45.5029 45.5021V55.6914M45.5029 55.6914L46.0313 169.404V175.925L45.9548 176.515C45.6964 178.509 43.9983 180.001 41.988 180.001H41.8044H5.78784C5.15152 180.001 4.52438 179.849 3.95851 179.558L3.33066 179.235C2.2663 178.688 1.50296 177.692 1.2502 176.523L1.21131 176.343C1.15134 176.065 1.12109 175.782 1.12109 175.498V168.181V55.2838M45.5029 55.6914L1.12109 55.2838" stroke="black" stroke-width="2"/>
<rect x="1.12109" y="45.5" width="44.3818" height="9.78172" fill="black"/>
<rect x="1.12109" y="156.363" width="45.4385" height="9.78172" fill="black"/>
<rect x="1.12109" y="146.582" width="44.3818" height="5.706" fill="black"/>
<path d="M1.12109 140.059H45.5029V143.319H1.12109V140.059Z" fill="black"/>
<rect x="1.12109" y="60.1758" width="44.3818" height="5.706" fill="black"/>
<rect x="1.12109" y="69.957" width="44.3818" height="3.26057" fill="black"/>
<ellipse cx="23.5173" cy="104.189" rx="8.65987" ry="24.4543" fill="black"/>
</svg>
