<svg width="48" height="182" viewBox="0 0 48 182" fill="none" xmlns="http://www.w3.org/2000/svg">
<path d="M9.16112 24.1706L16.24 3.69311C16.7972 2.08129 18.3151 1 20.0205 1H28.5268C30.2898 1 31.845 2.15434 32.3554 3.8419L38.4519 23.9966C38.7542 24.9962 39.4355 25.8379 40.3502 26.3419L44.2815 28.508C45.5582 29.2115 46.3511 30.5537 46.3511 32.0114V39.0614V45.2004V55.4319L46.8817 169.616V176.164L46.803 176.771C46.5446 178.765 44.8466 180.257 42.8362 180.257H42.6373H6.46725C5.83093 180.257 5.20379 180.105 4.63792 179.814L3.99691 179.485C2.93255 178.937 2.16922 177.942 1.91646 176.772L1.87537 176.582C1.8154 176.304 1.78516 176.021 1.78516 175.737V168.388V55.0227V45.2004V31.9261C1.78516 30.5141 2.52962 29.2066 3.74394 28.4861L7.42186 26.3037C8.23568 25.8208 8.85194 25.065 9.16112 24.1706Z" fill="#38E545"/>
<path d="M1.78516 45.2004V31.9261C1.78516 30.5141 2.52962 29.2066 3.74394 28.4861L7.42186 26.3037C8.23568 25.8208 8.85194 25.065 9.16112 24.1706L16.24 3.69311C16.7972 2.08129 18.3151 1 20.0205 1H28.5268C30.2898 1 31.845 2.15434 32.3554 3.8419L38.4519 23.9966C38.7542 24.9962 39.4355 25.8379 40.3502 26.3419L44.2815 28.508C45.5582 29.2115 46.3511 30.5537 46.3511 32.0114V39.0614V45.2004M1.78516 45.2004H46.3511M1.78516 45.2004V55.0227M46.3511 45.2004V55.4319M46.3511 55.4319L46.8817 169.616V176.164L46.803 176.771C46.5446 178.765 44.8466 180.257 42.8362 180.257H42.6373H6.46725C5.83093 180.257 5.20379 180.105 4.63792 179.814L3.99691 179.485C2.93255 178.937 2.16922 177.942 1.91646 176.772L1.87537 176.582C1.8154 176.304 1.78516 176.021 1.78516 175.737V168.388V55.0227M46.3511 55.4319L1.78516 55.0227" stroke="black" stroke-width="2"/>
<rect x="1.78516" y="45.2031" width="44.566" height="9.8223" fill="black"/>
<rect x="1.78516" y="156.52" width="45.6271" height="9.8223" fill="black"/>
<rect x="1.78516" y="146.699" width="44.566" height="5.72968" fill="black"/>
<path d="M1.78516 140.148H46.3511V143.423H1.78516V140.148Z" fill="black"/>
<rect x="1.78516" y="59.9336" width="44.566" height="5.72968" fill="black"/>
<rect x="1.78516" y="69.7578" width="44.566" height="3.2741" fill="black"/>
<ellipse cx="24.2759" cy="104.134" rx="8.6958" ry="24.5558" fill="black"/>
</svg>
