<svg width="48" height="182" viewBox="0 0 48 182" fill="none" xmlns="http://www.w3.org/2000/svg">
<path d="M8.91582 24.7996L15.9597 4.42358C16.5169 2.81175 18.0347 1.73047 19.7402 1.73047H28.1872C29.9503 1.73047 31.5054 2.88481 32.0159 4.57236L38.0816 24.6256C38.384 25.6252 39.0653 26.4669 39.9799 26.9709L43.8806 29.1201C45.1572 29.8236 45.9502 31.1658 45.9502 32.6235V39.6346V45.7482V55.9375L46.4785 169.65V176.171L46.4021 176.761C46.1436 178.755 44.4456 180.247 42.4353 180.247H42.2517H6.23511C5.59879 180.247 4.97165 180.095 4.40577 179.804L3.77792 179.481C2.71356 178.934 1.95023 177.939 1.69747 176.769L1.65858 176.589C1.5986 176.311 1.56836 176.028 1.56836 175.744V168.427V55.5299V45.7482V32.5381C1.56836 31.1261 2.31282 29.8187 3.52714 29.0982L7.17656 26.9327C7.99038 26.4498 8.60664 25.694 8.91582 24.7996Z" fill="#1B86CE"/>
<path d="M1.56836 45.7482V32.5381C1.56836 31.1261 2.31282 29.8187 3.52714 29.0982L7.17656 26.9327C7.99038 26.4498 8.60664 25.694 8.91582 24.7996L15.9597 4.42358C16.5169 2.81175 18.0347 1.73047 19.7402 1.73047H28.1872C29.9503 1.73047 31.5054 2.88481 32.0159 4.57236L38.0816 24.6256C38.384 25.6252 39.0653 26.4669 39.9799 26.9709L43.8806 29.1201C45.1572 29.8236 45.9502 31.1658 45.9502 32.6235V39.6346V45.7482M1.56836 45.7482H45.9502M1.56836 45.7482V55.5299M45.9502 45.7482V55.9375M45.9502 55.9375L46.4785 169.65V176.171L46.4021 176.761C46.1436 178.755 44.4456 180.247 42.4353 180.247H42.2517H6.23511C5.59879 180.247 4.97165 180.095 4.40577 179.804L3.77792 179.481C2.71356 178.934 1.95023 177.939 1.69747 176.769L1.65858 176.589C1.5986 176.311 1.56836 176.028 1.56836 175.744V168.427V55.5299M45.9502 55.9375L1.56836 55.5299" stroke="black" stroke-width="2"/>
<rect x="1.56836" y="45.7461" width="44.3818" height="9.78172" fill="black"/>
<rect x="1.56836" y="156.609" width="45.4385" height="9.78172" fill="black"/>
<rect x="1.56836" y="146.828" width="44.3818" height="5.706" fill="black"/>
<path d="M1.56836 140.305H45.9502V143.565H1.56836V140.305Z" fill="black"/>
<rect x="1.56836" y="60.4219" width="44.3818" height="5.706" fill="black"/>
<rect x="1.56836" y="70.207" width="44.3818" height="3.26057" fill="black"/>
<ellipse cx="23.9646" cy="104.439" rx="8.65987" ry="24.4543" fill="black"/>
</svg>
