<svg width="48" height="182" viewBox="0 0 48 182" fill="none" xmlns="http://www.w3.org/2000/svg">
<path d="M8.73143 24.1706L15.8104 3.69311C16.3676 2.08129 17.8854 1 19.5908 1H28.0971C29.8601 1 31.4153 2.15434 31.9257 3.8419L38.0222 23.9966C38.3245 24.9962 39.0058 25.8379 39.9205 26.3419L43.8518 28.508C45.1285 29.2115 45.9215 30.5537 45.9215 32.0114V39.0614V45.2004V55.4319L46.452 169.616V176.164L46.3733 176.771C46.1149 178.765 44.4169 180.257 42.4065 180.257H42.2076H6.03756C5.40124 180.257 4.77411 180.105 4.20823 179.814L3.56722 179.485C2.50286 178.937 1.73953 177.942 1.48677 176.772L1.44568 176.582C1.38571 176.304 1.35547 176.021 1.35547 175.737V168.388V55.0227V45.2004V31.9261C1.35547 30.5141 2.09993 29.2066 3.31425 28.4861L6.99217 26.3037C7.80599 25.8208 8.42225 25.065 8.73143 24.1706Z" fill="#FEEF10"/>
<path d="M1.35547 45.2004V31.9261C1.35547 30.5141 2.09993 29.2066 3.31425 28.4861L6.99217 26.3037C7.80599 25.8208 8.42225 25.065 8.73143 24.1706L15.8104 3.69311C16.3676 2.08129 17.8854 1 19.5908 1H28.0971C29.8601 1 31.4153 2.15434 31.9257 3.8419L38.0222 23.9966C38.3245 24.9962 39.0058 25.8379 39.9205 26.3419L43.8518 28.508C45.1285 29.2115 45.9215 30.5537 45.9215 32.0114V39.0614V45.2004M1.35547 45.2004H45.9215M1.35547 45.2004V55.0227M45.9215 45.2004V55.4319M45.9215 55.4319L46.452 169.616V176.164L46.3733 176.771C46.1149 178.765 44.4169 180.257 42.4065 180.257H42.2076H6.03756C5.40124 180.257 4.77411 180.105 4.20823 179.814L3.56722 179.485C2.50286 178.937 1.73953 177.942 1.48677 176.772L1.44568 176.582C1.38571 176.304 1.35547 176.021 1.35547 175.737V168.388V55.0227M45.9215 55.4319L1.35547 55.0227" stroke="black" stroke-width="2"/>
<rect x="1.35547" y="45.2031" width="44.566" height="9.8223" fill="black"/>
<rect x="1.35547" y="156.52" width="45.6271" height="9.8223" fill="black"/>
<rect x="1.35547" y="146.699" width="44.566" height="5.72968" fill="black"/>
<path d="M1.35547 140.148H45.9215V143.423H1.35547V140.148Z" fill="black"/>
<rect x="1.35547" y="59.9336" width="44.566" height="5.72968" fill="black"/>
<rect x="1.35547" y="69.7578" width="44.566" height="3.2741" fill="black"/>
<ellipse cx="23.8462" cy="104.134" rx="8.6958" ry="24.5558" fill="black"/>
</svg>
